<svg width="192" height="66" viewBox="0 0 192 66" fill="none" xmlns="http://www.w3.org/2000/svg">
<rect width="192" height="66" rx="30" fill="#F8B302" fill-opacity="0.93"/>
<path d="M26.7159 42.001H22.4545L27.2557 27.4555H32.6534L37.4545 42.001H33.1932L30.0114 31.4612H29.8977L26.7159 42.001ZM25.9205 36.2623H33.9318V39.2169H25.9205V36.2623ZM44.4521 42.001H38.8555V27.4555H44.3952C45.8915 27.4555 47.1841 27.7467 48.2731 28.3291C49.3668 28.9068 50.2096 29.7401 50.8015 30.8291C51.3981 31.9134 51.6964 33.2131 51.6964 34.7282C51.6964 36.2434 51.4005 37.5455 50.8086 38.6345C50.2167 39.7188 49.3787 40.5521 48.2944 41.1345C47.2101 41.7122 45.9293 42.001 44.4521 42.001ZM42.8043 38.6487H44.31C45.0297 38.6487 45.6429 38.5327 46.1495 38.3007C46.6609 38.0687 47.0491 37.6686 47.3143 37.1004C47.5842 36.5322 47.7191 35.7415 47.7191 34.7282C47.7191 33.715 47.5818 32.9243 47.3072 32.3561C47.0373 31.7879 46.6396 31.3878 46.114 31.1558C45.5932 30.9238 44.954 30.8078 44.1964 30.8078H42.8043V38.6487ZM59.12 42.001H53.5234V27.4555H59.0632C60.5594 27.4555 61.852 27.7467 62.9411 28.3291C64.0348 28.9068 64.8776 29.7401 65.4695 30.8291C66.0661 31.9134 66.3643 33.2131 66.3643 34.7282C66.3643 36.2434 66.0684 37.5455 65.4766 38.6345C64.8847 39.7188 64.0466 40.5521 62.9624 41.1345C61.8781 41.7122 60.5973 42.001 59.12 42.001ZM57.4723 38.6487H58.978C59.6977 38.6487 60.3108 38.5327 60.8175 38.3007C61.3288 38.0687 61.7171 37.6686 61.9822 37.1004C62.2521 36.5322 62.3871 35.7415 62.3871 34.7282C62.3871 33.715 62.2498 32.9243 61.9751 32.3561C61.7053 31.7879 61.3075 31.3878 60.782 31.1558C60.2611 30.9238 59.6219 30.8078 58.8643 30.8078H57.4723V38.6487ZM71.7781 30.6373V27.4555H84.4201V30.6373H80.0451V42.001H76.1531V30.6373H71.7781ZM99.3136 34.7282C99.3136 36.3476 98.9987 37.7136 98.369 38.8263C97.7392 39.9342 96.8893 40.7747 95.8192 41.3476C94.7492 41.9157 93.556 42.1998 92.2397 42.1998C90.9139 42.1998 89.716 41.9134 88.646 41.3405C87.5806 40.7628 86.7331 39.92 86.1033 38.8121C85.4783 37.6994 85.1658 36.3381 85.1658 34.7282C85.1658 33.1089 85.4783 31.7453 86.1033 30.6373C86.7331 29.5247 87.5806 28.6842 88.646 28.116C89.716 27.5431 90.9139 27.2567 92.2397 27.2567C93.556 27.2567 94.7492 27.5431 95.8192 28.116C96.8893 28.6842 97.7392 29.5247 98.369 30.6373C98.9987 31.7453 99.3136 33.1089 99.3136 34.7282ZM95.2511 34.7282C95.2511 33.857 95.1351 33.1231 94.9031 32.5265C94.6758 31.9252 94.3372 31.4707 93.8874 31.1629C93.4424 30.8504 92.8931 30.6942 92.2397 30.6942C91.5863 30.6942 91.0347 30.8504 90.5849 31.1629C90.1398 31.4707 89.8013 31.9252 89.5692 32.5265C89.342 33.1231 89.2283 33.857 89.2283 34.7282C89.2283 35.5995 89.342 36.3357 89.5692 36.9371C89.8013 37.5336 90.1398 37.9882 90.5849 38.3007C91.0347 38.6085 91.5863 38.7623 92.2397 38.7623C92.8931 38.7623 93.4424 38.6085 93.8874 38.3007C94.3372 37.9882 94.6758 37.5336 94.9031 36.9371C95.1351 36.3357 95.2511 35.5995 95.2511 34.7282ZM118.705 32.9101H114.699C114.67 32.5786 114.595 32.278 114.472 32.0081C114.353 31.7382 114.188 31.5062 113.974 31.3121C113.766 31.1132 113.513 30.9617 113.214 30.8575C112.916 30.7486 112.578 30.6942 112.199 30.6942C111.536 30.6942 110.975 30.8551 110.516 31.1771C110.061 31.4991 109.715 31.9607 109.479 32.5621C109.247 33.1634 109.131 33.8854 109.131 34.7282C109.131 35.6184 109.249 36.3641 109.486 36.9655C109.727 37.5621 110.075 38.0119 110.53 38.3149C110.984 38.6132 111.531 38.7623 112.17 38.7623C112.535 38.7623 112.862 38.7174 113.151 38.6274C113.439 38.5327 113.69 38.3978 113.903 38.2226C114.116 38.0474 114.289 37.8367 114.422 37.5905C114.559 37.3395 114.652 37.0578 114.699 36.7453L118.705 36.7737C118.657 37.3892 118.484 38.0166 118.186 38.6558C117.888 39.2903 117.464 39.8774 116.915 40.4172C116.37 40.9522 115.696 41.3831 114.891 41.7098C114.086 42.0365 113.151 42.1998 112.085 42.1998C110.75 42.1998 109.552 41.9134 108.491 41.3405C107.436 40.7675 106.6 39.9247 105.984 38.8121C105.374 37.6994 105.068 36.3381 105.068 34.7282C105.068 33.1089 105.381 31.7453 106.006 30.6373C106.631 29.5247 107.473 28.6842 108.534 28.116C109.595 27.5431 110.778 27.2567 112.085 27.2567C113.004 27.2567 113.849 27.3821 114.621 27.6331C115.393 27.884 116.07 28.251 116.652 28.7339C117.234 29.2122 117.703 29.8016 118.058 30.5024C118.413 31.2032 118.629 32.0057 118.705 32.9101ZM123.825 42.001H119.564L124.365 27.4555H129.763L134.564 42.001H130.303L127.121 31.4612H127.007L123.825 42.001ZM123.03 36.2623H131.041V39.2169H123.03V36.2623ZM135.965 42.001V27.4555H142.243C143.323 27.4555 144.267 27.652 145.077 28.045C145.887 28.438 146.516 29.0038 146.966 29.7425C147.416 30.4811 147.641 31.3665 147.641 32.3987C147.641 33.4404 147.409 34.3187 146.945 35.0336C146.486 35.7486 145.839 36.2884 145.006 36.653C144.177 37.0175 143.209 37.1998 142.101 37.1998H138.351V34.1317H141.306C141.77 34.1317 142.165 34.0748 142.492 33.9612C142.823 33.8428 143.077 33.6558 143.252 33.4001C143.432 33.1444 143.522 32.8106 143.522 32.3987C143.522 31.982 143.432 31.6435 143.252 31.3831C143.077 31.1179 142.823 30.9238 142.492 30.8007C142.165 30.6729 141.77 30.6089 141.306 30.6089H139.914V42.001H135.965ZM144.488 35.3248L148.124 42.001H143.834L140.283 35.3248H144.488ZM148.926 30.6373V27.4555H161.569V30.6373H157.194V42.001H153.301V30.6373H148.926Z" fill="#81450A"/>
</svg>
