<svg width="233" height="252" viewBox="0 0 233 252" fill="none" xmlns="http://www.w3.org/2000/svg">
<rect y="7" width="233" height="245" fill="#FFBC0F" fill-opacity="0.93"/>
<path d="M58.0464 79.541L60.4684 89.8098L53.7214 97.7365L63.8419 98.4572L68.9887 107.6L72.8813 97.7816L82.7423 95.4846L75.0005 88.6838L75.9088 78.1448L67.302 83.7296L58.0464 79.541ZM168.508 38.2271L171.795 45.082L168.378 51.8423L175.601 50.5812L180.618 56.211L181.872 48.6445L188.446 45.3252L181.915 41.8392L180.964 34.2367L175.774 39.6188L168.508 38.2271ZM142.817 59.9042L139.833 68.3714L131.658 70.6684L138.449 76.118L138.276 79.6761C128.511 83.5534 118.533 88.0498 108.693 93.0075C108.649 93.0225 108.606 93.0375 108.563 93.0525C95.8686 99.4715 83.6406 106.539 72.5885 113.845C61.5363 121.152 51.8802 128.551 44.1803 135.614L38.8692 132.371L38.0647 121.652L30.3143 128.813L20.237 126.336L24.4539 136.245L19 145.432L29.3368 144.306L32.386 148.045C25.6294 156.622 23.249 163.713 25.4919 168.582C28.7293 175.658 41.4857 177.596 61.0739 173.987L59.2574 179.076L49.9629 181.688L57.6139 187.769L57.0949 197.812L65.053 192.182L74.0923 195.785L71.3242 186.147L77.4225 178.311L67.7777 177.995L64.7502 173.176C74.1839 171.203 84.7776 168.09 96.0202 163.988L99.0045 172.365L105.319 162.052L117.083 161.691L113.493 157.097C120.348 154.118 127.234 150.872 134.037 147.414C153.428 137.624 171.584 126.396 186.111 115.212L189.787 123.318L183.775 133.903L195.496 132.326L203.238 141.559L205.53 129.534L216.343 124.67L205.963 118.725L204.925 106.519L196.274 114.896L188.749 113.14C199.543 104.561 207.734 96.3602 212.667 89.1898C217.6 82.0195 219.14 76.0781 217.164 71.8394C214.756 66.6803 207.228 64.2374 195.458 64.7956C183.688 65.3538 168.161 68.8901 150.689 74.9921L150.602 74.5867L155.965 67.6508L147.402 67.4256L142.817 59.9042ZM110.206 97.151C110.307 97.076 110.408 97.0009 110.509 96.9259C119.707 92.3075 129.039 88.2281 138.016 84.9006V84.9906L138.276 84.8105C141.704 83.5093 145.072 82.3203 148.353 81.2524L153.067 83.1441L152.159 80.1265C163.223 76.8777 172.79 75.2383 179.993 75.3562C187.197 75.4742 191.812 77.3458 193.42 80.8021C195.043 84.2696 193.583 89.2264 189.171 95.2208C184.759 101.215 177.537 108.056 168.162 115.121L167.297 110.212L171.622 105.573L165.394 104.853L162.582 99.0427L159.944 104.943L153.716 106.024L158.344 110.437L157.436 116.833L162.842 113.77L167.124 115.932C156.458 123.843 143.559 131.69 129.885 138.587C123.624 141.735 117.287 144.642 111.028 147.234L112.888 140.478L101.945 144.847L92.2142 138.046L92.9062 150.206L85.5536 156.197C75.1478 159.067 66.2168 160.43 59.5062 160.171C52.7956 159.913 48.5002 158.04 46.9786 154.71C44.4559 149.199 49.6883 140.054 61.5338 129.271C73.3794 118.487 90.8763 106.941 110.206 97.151Z" fill="white"/>
<path d="M21.25 80.2367V45.3276H36.3864C39.0455 45.3276 41.2784 45.6856 43.0852 46.4015C44.9034 47.1174 46.2727 48.1287 47.1932 49.4356C48.125 50.7424 48.5909 52.2821 48.5909 54.0549C48.5909 55.339 48.3068 56.5094 47.7386 57.5662C47.1818 58.6231 46.3977 59.5094 45.3864 60.2253C44.375 60.9299 43.1932 61.4185 41.8409 61.6912V62.0321C43.3409 62.089 44.7045 62.4696 45.9318 63.1742C47.1591 63.8674 48.1364 64.8276 48.8636 66.0549C49.5909 67.2708 49.9545 68.7026 49.9545 70.3503C49.9545 72.2594 49.4545 73.9583 48.4545 75.4469C47.4659 76.9356 46.0568 78.106 44.2273 78.9583C42.3977 79.8106 40.2159 80.2367 37.6818 80.2367H21.25ZM30.7273 72.6685H35.1591C36.75 72.6685 37.9432 72.3731 38.7386 71.7821C39.5341 71.1799 39.9318 70.2935 39.9318 69.1231C39.9318 68.3049 39.7443 67.6117 39.3693 67.0435C38.9943 66.4753 38.4602 66.0435 37.767 65.7481C37.0852 65.4526 36.2614 65.3049 35.2955 65.3049H30.7273V72.6685ZM30.7273 59.4412H34.6136C35.4432 59.4412 36.1761 59.3106 36.8125 59.0492C37.4489 58.7878 37.9432 58.4128 38.2955 57.9242C38.6591 57.4242 38.8409 56.8162 38.8409 56.1003C38.8409 55.0208 38.4545 54.1969 37.6818 53.6287C36.9091 53.0492 35.9318 52.7594 34.75 52.7594H30.7273V59.4412ZM91.4507 62.7821C91.4507 66.6685 90.695 69.9469 89.1836 72.6174C87.6723 75.2765 85.6325 77.2935 83.0643 78.6685C80.4961 80.0321 77.6325 80.714 74.4734 80.714C71.2916 80.714 68.4166 80.0265 65.8484 78.6515C63.2916 77.2651 61.2575 75.2424 59.7461 72.5833C58.2461 69.9128 57.4961 66.6458 57.4961 62.7821C57.4961 58.8958 58.2461 55.6231 59.7461 52.964C61.2575 50.2935 63.2916 48.2765 65.8484 46.9128C68.4166 45.5378 71.2916 44.8503 74.4734 44.8503C77.6325 44.8503 80.4961 45.5378 83.0643 46.9128C85.6325 48.2765 87.6723 50.2935 89.1836 52.964C90.695 55.6231 91.4507 58.8958 91.4507 62.7821ZM81.7007 62.7821C81.7007 60.6912 81.4223 58.9299 80.8655 57.4981C80.32 56.0549 79.5075 54.964 78.428 54.2253C77.3598 53.4753 76.0416 53.1003 74.4734 53.1003C72.9052 53.1003 71.5814 53.4753 70.5018 54.2253C69.4336 54.964 68.6211 56.0549 68.0643 57.4981C67.5189 58.9299 67.2461 60.6912 67.2461 62.7821C67.2461 64.8731 67.5189 66.6401 68.0643 68.0833C68.6211 69.5151 69.4336 70.606 70.5018 71.356C71.5814 72.0946 72.9052 72.464 74.4734 72.464C76.0416 72.464 77.3598 72.0946 78.428 71.356C79.5075 70.606 80.32 69.5151 80.8655 68.0833C81.4223 66.6401 81.7007 64.8731 81.7007 62.7821ZM130.36 45.3276V80.2367H122.451L109.837 61.8958H109.633V80.2367H100.156V45.3276H108.201L120.61 63.6003H120.883V45.3276H130.36ZM159.822 45.3276H169.299V67.6912C169.299 70.3503 168.663 72.6515 167.39 74.5946C166.129 76.5265 164.368 78.0208 162.106 79.0776C159.845 80.1231 157.22 80.6458 154.231 80.6458C151.22 80.6458 148.584 80.1231 146.322 79.0776C144.061 78.0208 142.299 76.5265 141.038 74.5946C139.788 72.6515 139.163 70.3503 139.163 67.6912V45.3276H148.64V66.8731C148.64 67.9526 148.879 68.9185 149.356 69.7708C149.834 70.6117 150.493 71.2708 151.334 71.7481C152.186 72.2253 153.152 72.464 154.231 72.464C155.322 72.464 156.288 72.2253 157.129 71.7481C157.97 71.2708 158.629 70.6117 159.106 69.7708C159.584 68.9185 159.822 67.9526 159.822 66.8731V45.3276ZM196.942 56.2367C196.851 55.1003 196.425 54.214 195.664 53.5776C194.914 52.9412 193.771 52.6231 192.237 52.6231C191.26 52.6231 190.459 52.7424 189.834 52.981C189.22 53.2083 188.766 53.5208 188.47 53.9185C188.175 54.3162 188.021 54.7708 188.01 55.2821C187.987 55.7026 188.061 56.0833 188.232 56.4242C188.414 56.7537 188.698 57.0549 189.084 57.3276C189.47 57.589 189.965 57.8276 190.567 58.0435C191.169 58.2594 191.885 58.4526 192.715 58.6231L195.578 59.2367C197.51 59.6458 199.164 60.1856 200.539 60.856C201.914 61.5265 203.039 62.3162 203.914 63.2253C204.789 64.1231 205.431 65.1344 205.84 66.2594C206.26 67.3844 206.476 68.6117 206.487 69.9412C206.476 72.2367 205.902 74.1799 204.766 75.7708C203.629 77.3617 202.004 78.5719 199.891 79.4015C197.789 80.231 195.26 80.6458 192.306 80.6458C189.271 80.6458 186.624 80.1969 184.362 79.2992C182.112 78.4015 180.362 77.0208 179.112 75.1571C177.874 73.2821 177.249 70.8844 177.237 67.964H186.237C186.294 69.0321 186.561 69.9299 187.039 70.6571C187.516 71.3844 188.186 71.9356 189.05 72.3106C189.925 72.6856 190.965 72.8731 192.169 72.8731C193.181 72.8731 194.027 72.7481 194.709 72.4981C195.391 72.2481 195.908 71.9015 196.26 71.4583C196.612 71.0151 196.794 70.5094 196.806 69.9412C196.794 69.4071 196.618 68.9412 196.277 68.5435C195.948 68.1344 195.402 67.7708 194.641 67.4526C193.879 67.1231 192.851 66.8162 191.556 66.5321L188.078 65.7821C184.987 65.1117 182.55 63.9924 180.766 62.4242C178.993 60.8446 178.112 58.6912 178.124 55.964C178.112 53.7481 178.703 51.8106 179.896 50.1515C181.101 48.481 182.766 47.1799 184.891 46.2481C187.027 45.3162 189.476 44.8503 192.237 44.8503C195.056 44.8503 197.493 45.3219 199.55 46.2651C201.607 47.2083 203.192 48.5378 204.306 50.2537C205.431 51.9583 205.999 53.9526 206.01 56.2367H196.942Z" fill="#81450A"/>
<path d="M35.8636 106.633L40.6364 123.042H40.8182L45.5909 106.633H52.7273L45.0455 129.906H36.4091L28.7273 106.633H35.8636ZM78.9255 118.27C78.9255 120.861 78.4217 123.046 77.4141 124.827C76.4065 126.599 75.0467 127.944 73.3345 128.861C71.6224 129.77 69.7133 130.224 67.6073 130.224C65.4861 130.224 63.5694 129.766 61.8573 128.849C60.1527 127.925 58.7967 126.577 57.7891 124.804C56.7891 123.024 56.2891 120.846 56.2891 118.27C56.2891 115.679 56.7891 113.497 57.7891 111.724C58.7967 109.944 60.1527 108.599 61.8573 107.69C63.5694 106.774 65.4861 106.315 67.6073 106.315C69.7133 106.315 71.6224 106.774 73.3345 107.69C75.0467 108.599 76.4065 109.944 77.4141 111.724C78.4217 113.497 78.9255 115.679 78.9255 118.27ZM72.4255 118.27C72.4255 116.876 72.2399 115.702 71.8686 114.747C71.505 113.785 70.9633 113.058 70.2436 112.565C69.5315 112.065 68.6527 111.815 67.6073 111.815C66.5618 111.815 65.6792 112.065 64.9595 112.565C64.2474 113.058 63.7058 113.785 63.3345 114.747C62.9709 115.702 62.7891 116.876 62.7891 118.27C62.7891 119.664 62.9709 120.842 63.3345 121.804C63.7058 122.758 64.2474 123.486 64.9595 123.986C65.6792 124.478 66.5618 124.724 67.6073 124.724C68.6527 124.724 69.5315 124.478 70.2436 123.986C70.9633 123.486 71.505 122.758 71.8686 121.804C72.2399 120.842 72.4255 119.664 72.4255 118.27ZM98.5015 106.633H104.82V121.542C104.82 123.315 104.395 124.849 103.547 126.145C102.706 127.433 101.532 128.429 100.024 129.133C98.5166 129.83 96.7666 130.179 94.7742 130.179C92.7666 130.179 91.0091 129.83 89.5015 129.133C87.9939 128.429 86.8197 127.433 85.9788 126.145C85.1454 124.849 84.7288 123.315 84.7288 121.542V106.633H91.0469V120.997C91.0469 121.717 91.206 122.361 91.5242 122.929C91.8424 123.489 92.2818 123.929 92.8424 124.247C93.4106 124.565 94.0545 124.724 94.7742 124.724C95.5015 124.724 96.1454 124.565 96.706 124.247C97.2666 123.929 97.706 123.489 98.0242 122.929C98.3424 122.361 98.5015 121.717 98.5015 120.997V106.633ZM132.43 115.361H126.021C125.975 114.83 125.854 114.349 125.657 113.917C125.468 113.486 125.203 113.114 124.862 112.804C124.528 112.486 124.123 112.243 123.646 112.077C123.168 111.902 122.627 111.815 122.021 111.815C120.96 111.815 120.062 112.073 119.327 112.588C118.6 113.103 118.047 113.842 117.668 114.804C117.297 115.766 117.112 116.921 117.112 118.27C117.112 119.694 117.301 120.887 117.68 121.849C118.066 122.804 118.623 123.524 119.35 124.008C120.078 124.486 120.953 124.724 121.975 124.724C122.559 124.724 123.081 124.652 123.543 124.508C124.006 124.357 124.407 124.141 124.748 123.861C125.089 123.58 125.365 123.243 125.577 122.849C125.797 122.448 125.945 121.997 126.021 121.497L132.43 121.542C132.354 122.527 132.078 123.531 131.6 124.554C131.123 125.569 130.445 126.508 129.566 127.372C128.695 128.228 127.615 128.917 126.327 129.44C125.04 129.963 123.543 130.224 121.839 130.224C119.702 130.224 117.786 129.766 116.089 128.849C114.399 127.933 113.062 126.584 112.077 124.804C111.1 123.024 110.612 120.846 110.612 118.27C110.612 115.679 111.112 113.497 112.112 111.724C113.112 109.944 114.46 108.599 116.157 107.69C117.854 106.774 119.748 106.315 121.839 106.315C123.309 106.315 124.661 106.516 125.896 106.917C127.131 107.319 128.214 107.906 129.146 108.679C130.078 109.444 130.828 110.387 131.396 111.508C131.964 112.63 132.309 113.914 132.43 115.361ZM138.176 129.906V106.633H144.494V115.724H152.858V106.633H159.176V129.906H152.858V120.815H144.494V129.906H138.176ZM165.056 129.906V106.633H181.829V111.724H171.374V115.724H180.965V120.815H171.374V124.815H181.784V129.906H165.056ZM187.842 129.906V106.633H197.888C199.615 106.633 201.127 106.948 202.422 107.577C203.717 108.205 204.725 109.111 205.445 110.292C206.164 111.474 206.524 112.891 206.524 114.542C206.524 116.209 206.153 117.614 205.411 118.758C204.676 119.902 203.642 120.766 202.308 121.349C200.983 121.933 199.433 122.224 197.661 122.224H191.661V117.315H196.388C197.13 117.315 197.763 117.224 198.286 117.042C198.816 116.853 199.221 116.554 199.502 116.145C199.789 115.736 199.933 115.202 199.933 114.542C199.933 113.876 199.789 113.334 199.502 112.917C199.221 112.493 198.816 112.183 198.286 111.986C197.763 111.781 197.13 111.679 196.388 111.679H194.161V129.906H187.842ZM201.479 119.224L207.297 129.906H200.433L194.752 119.224H201.479Z" fill="#81450A"/>
<path d="M27.6875 149.1C28.3854 149.183 28.9896 149.246 29.5 149.287C30.0104 149.319 30.4323 149.345 30.7656 149.365C31.151 149.386 31.474 149.392 31.7344 149.381C32.0052 149.371 32.375 149.345 32.8438 149.303C33.2396 149.272 33.7604 149.23 34.4062 149.178C35.0521 149.115 35.8594 149.032 36.8281 148.928C36.8385 149.168 36.8438 149.402 36.8438 149.631C36.8542 149.85 36.8646 150.043 36.875 150.209C36.8854 150.407 36.8906 150.589 36.8906 150.756C36.8906 150.933 36.8802 151.157 36.8594 151.428C36.8385 151.657 36.8021 151.949 36.75 152.303C36.7083 152.647 36.6406 153.058 36.5469 153.537C36.401 152.975 36.2604 152.522 36.125 152.178C35.9896 151.824 35.8646 151.543 35.75 151.334C35.625 151.095 35.5 150.912 35.375 150.787C35.2396 150.694 35.0781 150.615 34.8906 150.553C34.724 150.501 34.5104 150.459 34.25 150.428C34 150.397 33.7031 150.402 33.3594 150.444C33.3073 151.819 33.2708 152.933 33.25 153.787C33.2292 154.642 33.2135 155.308 33.2031 155.787C33.1927 156.36 33.1875 156.772 33.1875 157.022C33.1979 157.376 33.2552 157.725 33.3594 158.069C33.4427 158.36 33.5781 158.662 33.7656 158.975C33.9531 159.287 34.224 159.563 34.5781 159.803H32.6719C32.4948 159.803 32.276 159.813 32.0156 159.834C31.7969 159.855 31.5156 159.876 31.1719 159.897C30.8385 159.918 30.4479 159.954 30 160.006C30.1562 159.735 30.2812 159.49 30.375 159.272C30.4688 159.053 30.5417 158.865 30.5938 158.709C30.6562 158.522 30.7031 158.355 30.7344 158.209C30.7448 158.001 30.7708 157.579 30.8125 156.944C30.8229 156.683 30.8333 156.36 30.8438 155.975C30.8646 155.589 30.8854 155.131 30.9062 154.6C30.9375 154.069 30.9635 153.459 30.9844 152.772C31.0156 152.074 31.0469 151.287 31.0781 150.412C30.8906 150.36 30.7135 150.365 30.5469 150.428C30.3802 150.48 30.2344 150.548 30.1094 150.631C29.9635 150.735 29.8229 150.86 29.6875 151.006C29.5521 151.183 29.401 151.412 29.2344 151.694C29.0885 151.933 28.9219 152.251 28.7344 152.647C28.5469 153.032 28.3333 153.511 28.0938 154.084C28.0417 153.48 28.0052 152.985 27.9844 152.6C27.9635 152.204 27.9479 151.897 27.9375 151.678C27.9271 151.418 27.9219 151.225 27.9219 151.1C27.9219 150.985 27.9115 150.834 27.8906 150.647C27.8698 150.49 27.8438 150.287 27.8125 150.037C27.7812 149.777 27.7396 149.464 27.6875 149.1ZM38.9788 148.662C39.2183 148.704 39.4371 148.735 39.635 148.756C39.8329 148.767 39.9996 148.777 40.135 148.787C40.2913 148.798 40.4267 148.803 40.5413 148.803C40.6975 148.793 40.8798 148.777 41.0881 148.756C41.2652 148.735 41.4788 148.709 41.7288 148.678C41.9892 148.647 42.286 148.605 42.6194 148.553C42.4631 148.636 42.3329 148.72 42.2288 148.803C42.1246 148.876 42.0413 148.954 41.9788 149.037C41.9058 149.131 41.8485 149.22 41.8069 149.303C41.7548 149.438 41.6975 149.72 41.635 150.147C41.5725 150.511 41.4944 151.053 41.4006 151.772C41.3173 152.49 41.2079 153.464 41.0725 154.694C41.4475 154.319 41.8017 154.037 42.135 153.85C42.4788 153.652 42.7808 153.511 43.0413 153.428C43.3433 153.334 43.6246 153.287 43.885 153.287C44.2079 153.319 44.536 153.423 44.8694 153.6C45.2131 153.767 45.5308 153.964 45.8225 154.194C46.1246 154.423 46.385 154.668 46.6038 154.928C46.8329 155.188 46.9944 155.418 47.0881 155.615C47.1506 155.751 47.1819 155.928 47.1819 156.147C47.1819 156.355 47.161 156.584 47.1194 156.834C47.0777 157.084 47.0204 157.339 46.9475 157.6C46.8746 157.86 46.8017 158.105 46.7288 158.334C46.6663 158.563 46.609 158.767 46.5569 158.944C46.5048 159.11 46.4735 159.23 46.4631 159.303C46.4423 159.459 46.4527 159.61 46.4944 159.756C46.5256 159.881 46.5881 160.017 46.6819 160.162C46.7756 160.298 46.9163 160.412 47.1038 160.506C46.9579 160.485 46.8017 160.47 46.635 160.459C46.4788 160.438 46.3277 160.423 46.1819 160.412C46.0152 160.402 45.8485 160.397 45.6819 160.397H45.1194C44.9423 160.397 44.7392 160.402 44.51 160.412C44.2808 160.412 44.0308 160.418 43.76 160.428C43.9058 160.376 44.0308 160.308 44.135 160.225C44.2392 160.131 44.3277 160.043 44.4006 159.959C44.484 159.865 44.5569 159.767 44.6194 159.662C44.661 159.579 44.7131 159.423 44.7756 159.194C44.8381 158.954 44.8954 158.683 44.9475 158.381C44.9996 158.069 45.036 157.74 45.0569 157.397C45.0881 157.053 45.0933 156.725 45.0725 156.412C45.0621 156.089 45.0152 155.803 44.9319 155.553C44.859 155.303 44.7444 155.121 44.5881 155.006C44.1194 154.652 43.6923 154.48 43.3069 154.49C42.9319 154.49 42.5725 154.642 42.2288 154.944C42.1038 155.058 41.984 155.173 41.8694 155.287C41.7652 155.392 41.6506 155.517 41.5256 155.662C41.4006 155.798 41.286 155.938 41.1819 156.084C41.1819 156.24 41.1871 156.412 41.1975 156.6C41.2079 156.787 41.2183 156.97 41.2288 157.147C41.2392 157.345 41.2548 157.543 41.2756 157.74C41.2965 158.043 41.3277 158.339 41.3694 158.631C41.4006 158.881 41.4423 159.157 41.4944 159.459C41.5465 159.751 41.6142 160.017 41.6975 160.256C41.5621 160.235 41.4215 160.23 41.2756 160.24C41.1298 160.24 40.9892 160.24 40.8538 160.24C40.6975 160.251 40.5465 160.256 40.4006 160.256C40.2652 160.267 40.1246 160.282 39.9788 160.303C39.8538 160.324 39.7183 160.345 39.5725 160.365C39.4267 160.376 39.286 160.397 39.1506 160.428C39.2756 160.188 39.3798 159.954 39.4631 159.725C39.5465 159.485 39.6142 159.277 39.6663 159.1C39.7288 158.892 39.7808 158.688 39.8225 158.49C39.8538 158.334 39.8746 158.037 39.885 157.6C39.9058 157.152 39.9215 156.642 39.9319 156.069C39.9423 155.485 39.9475 154.871 39.9475 154.225C39.9475 153.579 39.9423 152.964 39.9319 152.381C39.9215 151.798 39.9006 151.287 39.8694 150.85C39.8485 150.412 39.8225 150.11 39.7913 149.944C39.7496 149.777 39.6923 149.61 39.6194 149.444C39.5569 149.298 39.4735 149.157 39.3694 149.022C39.2652 148.876 39.135 148.756 38.9788 148.662ZM49.7231 153.522L52.5981 153.553C52.4315 154.188 52.3065 154.73 52.2231 155.178C52.1502 155.626 52.1033 156.001 52.0825 156.303C52.0408 156.647 52.0304 156.938 52.0513 157.178C52.0825 157.397 52.1346 157.631 52.2075 157.881C52.27 158.089 52.3638 158.329 52.4888 158.6C52.6138 158.871 52.7804 159.142 52.9888 159.412C52.8638 159.371 52.7283 159.339 52.5825 159.319C52.4367 159.298 52.3013 159.282 52.1763 159.272C52.0304 159.261 51.8846 159.261 51.7388 159.272C51.5929 159.282 51.4315 159.298 51.2544 159.319C51.1085 159.339 50.9315 159.365 50.7231 159.397C50.5148 159.428 50.296 159.47 50.0669 159.522C50.2231 159.053 50.3429 158.647 50.4263 158.303C50.52 157.959 50.5877 157.673 50.6294 157.444C50.671 157.173 50.6971 156.954 50.7075 156.787C50.7075 156.579 50.7075 156.345 50.7075 156.084C50.7075 155.813 50.7075 155.553 50.7075 155.303C50.7075 155.053 50.7023 154.834 50.6919 154.647C50.6815 154.449 50.6606 154.324 50.6294 154.272L50.4731 154.115C50.4106 154.063 50.3169 153.99 50.1919 153.897C50.0773 153.793 49.921 153.668 49.7231 153.522ZM50.8325 151.115C51.0513 151.001 51.27 150.97 51.4888 151.022C51.7179 151.074 51.895 151.173 52.02 151.319C52.145 151.464 52.1867 151.636 52.145 151.834C52.1138 152.032 51.9471 152.225 51.645 152.412C51.3429 152.589 51.0773 152.652 50.8481 152.6C50.619 152.548 50.4575 152.438 50.3638 152.272C50.27 152.105 50.2544 151.912 50.3169 151.694C50.3794 151.464 50.5513 151.272 50.8325 151.115ZM62.2019 151.584C62.1081 151.813 62.0248 152.022 61.9519 152.209C61.8894 152.397 61.8321 152.563 61.78 152.709C61.7279 152.876 61.681 153.022 61.6394 153.147C61.5977 153.293 61.5508 153.459 61.4988 153.647C61.4467 153.813 61.379 154.022 61.2956 154.272C61.2227 154.511 61.1342 154.798 61.03 155.131C60.9467 154.631 60.7956 154.235 60.5769 153.944C60.3581 153.642 60.1342 153.407 59.905 153.24C59.6342 153.053 59.3425 152.918 59.03 152.834C58.4675 152.74 58.0613 152.751 57.8113 152.865C57.5613 152.98 57.3946 153.126 57.3113 153.303C57.2696 153.376 57.2227 153.47 57.1706 153.584C57.129 153.688 57.0925 153.798 57.0613 153.912C57.0404 154.027 57.0352 154.142 57.0456 154.256C57.056 154.371 57.1029 154.464 57.1863 154.537C57.2383 154.589 57.3738 154.662 57.5925 154.756C57.8113 154.839 58.0717 154.938 58.3738 155.053C58.6863 155.157 59.0144 155.272 59.3581 155.397C59.7123 155.522 60.0456 155.647 60.3581 155.772C60.6706 155.897 60.9415 156.022 61.1706 156.147C61.3998 156.272 61.5508 156.386 61.6238 156.49C61.6863 156.595 61.754 156.735 61.8269 156.912C61.9102 157.079 61.9675 157.267 61.9988 157.475C62.0404 157.673 62.0508 157.881 62.03 158.1C62.0196 158.308 61.9623 158.517 61.8581 158.725C61.754 158.933 61.5873 159.126 61.3581 159.303C61.1394 159.48 60.8425 159.626 60.4675 159.74C60.03 159.876 59.6081 159.912 59.2019 159.85C58.7956 159.787 58.4206 159.694 58.0769 159.569C57.7435 159.444 57.4519 159.324 57.2019 159.209C56.9519 159.084 56.7748 159.032 56.6706 159.053C56.556 159.074 56.4258 159.131 56.28 159.225C56.1342 159.319 55.9935 159.418 55.8581 159.522C55.7331 159.615 55.6238 159.704 55.53 159.787C55.4363 159.86 55.3894 159.886 55.3894 159.865C55.3894 159.845 55.405 159.782 55.4363 159.678C55.4779 159.574 55.5196 159.449 55.5613 159.303C55.6133 159.147 55.6602 158.98 55.7019 158.803C55.754 158.615 55.7904 158.438 55.8113 158.272C55.8321 158.136 55.8581 157.97 55.8894 157.772C55.9102 157.595 55.9363 157.381 55.9675 157.131C56.0092 156.871 56.056 156.558 56.1081 156.194C56.1602 156.464 56.2331 156.699 56.3269 156.897C56.431 157.095 56.53 157.267 56.6238 157.412C56.7383 157.579 56.8477 157.72 56.9519 157.834C57.1081 157.98 57.2904 158.115 57.4988 158.24C57.7175 158.365 57.9363 158.475 58.155 158.569C58.3738 158.652 58.5821 158.704 58.78 158.725C58.9779 158.746 59.1446 158.725 59.28 158.662C59.4154 158.6 59.53 158.485 59.6238 158.319C59.7279 158.152 59.8008 157.97 59.8425 157.772C59.8842 157.574 59.8998 157.386 59.8894 157.209C59.879 157.022 59.8321 156.871 59.7488 156.756C59.6863 156.683 59.5404 156.589 59.3113 156.475C59.0925 156.36 58.8269 156.235 58.5144 156.1C58.2123 155.964 57.8894 155.824 57.5456 155.678C57.2123 155.532 56.8946 155.386 56.5925 155.24C56.3008 155.084 56.056 154.938 55.8581 154.803C55.6706 154.657 55.5665 154.527 55.5456 154.412C55.5248 154.246 55.5092 154.063 55.4988 153.865C55.4883 153.657 55.4988 153.454 55.53 153.256C55.5717 153.048 55.6446 152.85 55.7488 152.662C55.8633 152.475 56.03 152.319 56.2488 152.194C56.3946 152.11 56.5873 152.048 56.8269 152.006C57.0665 151.964 57.3321 151.944 57.6238 151.944C57.9154 151.933 58.2175 151.944 58.53 151.975C58.8425 151.996 59.1394 152.027 59.4206 152.069C59.7123 152.1 59.9727 152.142 60.2019 152.194C60.4415 152.246 60.6238 152.293 60.7488 152.334C60.8946 152.386 61.0508 152.392 61.2175 152.35C61.3633 152.319 61.5196 152.251 61.6863 152.147C61.8529 152.043 62.0248 151.855 62.2019 151.584ZM70.4562 153.303C70.7687 153.324 71.0448 153.339 71.2844 153.35C71.5344 153.36 71.7427 153.371 71.9094 153.381C72.0969 153.392 72.2635 153.397 72.4094 153.397C72.5552 153.397 72.7219 153.392 72.9094 153.381C73.076 153.371 73.2792 153.355 73.5187 153.334C73.7687 153.303 74.0552 153.261 74.3781 153.209C74.1281 153.365 73.925 153.511 73.7687 153.647C73.6229 153.772 73.5083 153.886 73.425 153.99C73.3312 154.105 73.2687 154.209 73.2375 154.303C73.2167 154.386 73.1958 154.553 73.175 154.803C73.1646 155.043 73.1542 155.324 73.1437 155.647C73.1437 155.959 73.149 156.293 73.1594 156.647C73.1698 157.001 73.1854 157.324 73.2062 157.615C73.2271 157.897 73.2583 158.136 73.3 158.334C73.3417 158.522 73.3937 158.61 73.4562 158.6C73.5396 158.527 73.675 158.282 73.8625 157.865C73.9354 157.688 74.024 157.464 74.1281 157.194C74.2323 156.912 74.3521 156.574 74.4875 156.178C74.6229 155.772 74.774 155.298 74.9406 154.756C75.1177 154.214 75.3156 153.584 75.5344 152.865H76.8937C76.9354 153.574 76.9823 154.194 77.0344 154.725C77.0865 155.256 77.1385 155.72 77.1906 156.115C77.2427 156.501 77.2896 156.829 77.3312 157.1C77.3833 157.36 77.4354 157.574 77.4875 157.74C77.6021 158.136 77.7167 158.35 77.8312 158.381C77.925 158.36 78.024 158.24 78.1281 158.022C78.2427 157.803 78.3469 157.532 78.4406 157.209C78.5448 156.886 78.6385 156.537 78.7219 156.162C78.8052 155.777 78.8781 155.418 78.9406 155.084C79.0031 154.751 79.0448 154.459 79.0656 154.209C79.0865 153.959 79.0865 153.803 79.0656 153.74C79.0344 153.678 78.9719 153.589 78.8781 153.475C78.7948 153.381 78.6802 153.267 78.5344 153.131C78.399 152.996 78.2115 152.834 77.9719 152.647C78.2635 152.699 78.5396 152.735 78.8 152.756C79.0708 152.767 79.3104 152.777 79.5187 152.787C79.7583 152.798 79.9771 152.798 80.175 152.787C80.3833 152.787 80.6385 152.782 80.9406 152.772C81.201 152.761 81.524 152.756 81.9094 152.756C82.3052 152.756 82.7687 152.746 83.3 152.725C82.8312 152.871 82.4562 153.011 82.175 153.147C81.9042 153.272 81.6958 153.392 81.55 153.506C81.3729 153.631 81.2479 153.751 81.175 153.865C81.1021 154.022 80.9875 154.35 80.8312 154.85C80.7687 155.058 80.6906 155.319 80.5969 155.631C80.5031 155.933 80.3937 156.293 80.2687 156.709C80.1437 157.126 80.0031 157.61 79.8469 158.162C79.6906 158.704 79.5135 159.324 79.3156 160.022C79.201 160.001 79.0812 159.99 78.9562 159.99C78.8417 159.98 78.7323 159.975 78.6281 159.975H78.2687C78.1437 159.985 78.0083 159.996 77.8625 160.006C77.7375 160.017 77.5917 160.032 77.425 160.053C77.2583 160.074 77.076 160.1 76.8781 160.131L75.9406 156.334L74.4094 160.131L72.6594 160.084C72.4406 158.907 72.2635 157.97 72.1281 157.272C72.0031 156.563 71.899 156.022 71.8156 155.647C71.7219 155.209 71.6594 154.902 71.6281 154.725C71.576 154.537 71.4979 154.355 71.3937 154.178C71.3104 154.032 71.1906 153.881 71.0344 153.725C70.8781 153.558 70.6854 153.418 70.4562 153.303ZM87.5131 157.99C87.8048 157.99 88.0756 157.959 88.3256 157.897C88.534 157.845 88.7319 157.761 88.9194 157.647C89.1173 157.522 89.2475 157.339 89.31 157.1C89.5183 157.142 89.6954 157.178 89.8413 157.209C89.9871 157.23 90.1121 157.251 90.2163 157.272C90.3308 157.303 90.4298 157.324 90.5131 157.334C90.5965 157.355 90.6954 157.376 90.81 157.397C90.9142 157.418 91.0392 157.444 91.185 157.475C91.3413 157.496 91.5235 157.527 91.7319 157.569C91.5756 157.548 91.4142 157.563 91.2475 157.615C91.0913 157.668 90.9402 157.725 90.7944 157.787C90.6277 157.86 90.4715 157.949 90.3256 158.053C90.2319 158.115 90.1225 158.209 89.9975 158.334C89.8829 158.459 89.7163 158.579 89.4975 158.694C89.2788 158.808 88.9871 158.907 88.6225 158.99C88.2683 159.063 87.81 159.089 87.2475 159.069C86.5704 159.048 86.0027 158.928 85.5444 158.709C85.086 158.48 84.7163 158.204 84.435 157.881C84.1538 157.548 83.9506 157.188 83.8256 156.803C83.7006 156.418 83.6329 156.058 83.6225 155.725C83.6121 155.392 83.711 155.043 83.9194 154.678C84.1277 154.313 84.4194 153.98 84.7944 153.678C85.1798 153.376 85.6433 153.131 86.185 152.944C86.7267 152.746 87.3204 152.647 87.9663 152.647C88.3413 152.647 88.685 152.694 88.9975 152.787C89.3204 152.871 89.6121 152.985 89.8725 153.131C90.1433 153.277 90.3777 153.444 90.5756 153.631C90.7735 153.808 90.9402 153.99 91.0756 154.178C91.211 154.376 91.3256 154.584 91.4194 154.803C91.5027 154.99 91.5704 155.204 91.6225 155.444C91.6746 155.683 91.6902 155.928 91.6694 156.178C90.8777 156.199 90.2371 156.214 89.7475 156.225C89.2683 156.235 88.8933 156.24 88.6225 156.24H87.9194H87.3881C87.2006 156.24 86.9558 156.246 86.6538 156.256C86.3517 156.267 85.9819 156.282 85.5444 156.303C85.5965 156.72 85.7267 157.043 85.935 157.272C86.1538 157.49 86.3829 157.657 86.6225 157.772C86.8933 157.897 87.1902 157.97 87.5131 157.99ZM86.1069 155.178C86.4402 155.199 86.7163 155.214 86.935 155.225C87.1642 155.235 87.3517 155.246 87.4975 155.256C87.6538 155.267 87.7788 155.272 87.8725 155.272H88.2631C88.5235 155.272 89.0079 155.256 89.7163 155.225C89.685 154.767 89.586 154.418 89.4194 154.178C89.2631 153.938 89.0965 153.761 88.9194 153.647C88.711 153.522 88.4819 153.449 88.2319 153.428C87.5548 153.438 87.0496 153.579 86.7163 153.85C86.3933 154.121 86.1902 154.563 86.1069 155.178ZM98.1169 157.99C98.4085 157.99 98.6794 157.959 98.9294 157.897C99.1377 157.845 99.3356 157.761 99.5231 157.647C99.721 157.522 99.8512 157.339 99.9137 157.1C100.122 157.142 100.299 157.178 100.445 157.209C100.591 157.23 100.716 157.251 100.82 157.272C100.935 157.303 101.034 157.324 101.117 157.334C101.2 157.355 101.299 157.376 101.414 157.397C101.518 157.418 101.643 157.444 101.789 157.475C101.945 157.496 102.127 157.527 102.336 157.569C102.179 157.548 102.018 157.563 101.851 157.615C101.695 157.668 101.544 157.725 101.398 157.787C101.231 157.86 101.075 157.949 100.929 158.053C100.836 158.115 100.726 158.209 100.601 158.334C100.487 158.459 100.32 158.579 100.101 158.694C99.8825 158.808 99.5908 158.907 99.2262 158.99C98.8721 159.063 98.4137 159.089 97.8512 159.069C97.1742 159.048 96.6065 158.928 96.1481 158.709C95.6898 158.48 95.32 158.204 95.0387 157.881C94.7575 157.548 94.5544 157.188 94.4294 156.803C94.3044 156.418 94.2367 156.058 94.2262 155.725C94.2158 155.392 94.3148 155.043 94.5231 154.678C94.7315 154.313 95.0231 153.98 95.3981 153.678C95.7835 153.376 96.2471 153.131 96.7887 152.944C97.3304 152.746 97.9242 152.647 98.57 152.647C98.945 152.647 99.2887 152.694 99.6012 152.787C99.9242 152.871 100.216 152.985 100.476 153.131C100.747 153.277 100.981 153.444 101.179 153.631C101.377 153.808 101.544 153.99 101.679 154.178C101.815 154.376 101.929 154.584 102.023 154.803C102.106 154.99 102.174 155.204 102.226 155.444C102.278 155.683 102.294 155.928 102.273 156.178C101.481 156.199 100.841 156.214 100.351 156.225C99.8721 156.235 99.4971 156.24 99.2262 156.24H98.5231H97.9919C97.8044 156.24 97.5596 156.246 97.2575 156.256C96.9554 156.267 96.5856 156.282 96.1481 156.303C96.2002 156.72 96.3304 157.043 96.5387 157.272C96.7575 157.49 96.9867 157.657 97.2262 157.772C97.4971 157.897 97.794 157.97 98.1169 157.99ZM96.7106 155.178C97.044 155.199 97.32 155.214 97.5387 155.225C97.7679 155.235 97.9554 155.246 98.1012 155.256C98.2575 155.267 98.3825 155.272 98.4762 155.272H98.8669C99.1273 155.272 99.6117 155.256 100.32 155.225C100.289 154.767 100.19 154.418 100.023 154.178C99.8669 153.938 99.7002 153.761 99.5231 153.647C99.3148 153.522 99.0856 153.449 98.8356 153.428C98.1585 153.438 97.6533 153.579 97.32 153.85C96.9971 154.121 96.794 154.563 96.7106 155.178ZM104.502 149.24C104.616 149.293 104.752 149.329 104.908 149.35C105.075 149.371 105.231 149.381 105.377 149.381C105.554 149.381 105.736 149.376 105.924 149.365C106.111 149.355 106.34 149.334 106.611 149.303C106.83 149.282 107.101 149.256 107.424 149.225C107.747 149.194 108.106 149.152 108.502 149.1C108.356 149.173 108.231 149.251 108.127 149.334C108.023 149.418 107.934 149.501 107.861 149.584C107.778 149.678 107.71 149.772 107.658 149.865C107.585 149.99 107.486 150.209 107.361 150.522C107.247 150.824 107.127 151.162 107.002 151.537C106.887 151.912 106.783 152.293 106.689 152.678C106.606 153.063 106.559 153.392 106.549 153.662C106.538 153.892 106.528 154.152 106.518 154.444C106.507 154.694 106.497 155.001 106.486 155.365C106.476 155.73 106.465 156.147 106.455 156.615C107.205 156.074 107.783 155.642 108.189 155.319C108.596 154.985 108.893 154.73 109.08 154.553C109.299 154.355 109.429 154.214 109.471 154.131C109.46 154.069 109.434 154.001 109.393 153.928C109.34 153.865 109.268 153.793 109.174 153.709C109.08 153.626 108.939 153.532 108.752 153.428C109.023 153.459 109.257 153.48 109.455 153.49C109.663 153.501 109.84 153.511 109.986 153.522C110.153 153.532 110.299 153.532 110.424 153.522C110.559 153.522 110.726 153.517 110.924 153.506C111.268 153.496 111.799 153.48 112.518 153.459C111.82 153.824 111.268 154.136 110.861 154.397C110.632 154.543 110.429 154.678 110.252 154.803C110.075 154.938 109.893 155.079 109.705 155.225C109.538 155.35 109.346 155.496 109.127 155.662C108.919 155.829 108.71 156.006 108.502 156.194C108.866 156.787 109.184 157.277 109.455 157.662C109.736 158.048 109.971 158.36 110.158 158.6C110.377 158.881 110.57 159.105 110.736 159.272C110.903 159.428 111.122 159.605 111.393 159.803C111.622 159.98 111.919 160.188 112.283 160.428C112.658 160.657 113.111 160.923 113.643 161.225C113.372 161.173 113.111 161.136 112.861 161.115C112.611 161.105 112.398 161.105 112.221 161.115C112.002 161.126 111.804 161.147 111.627 161.178C111.439 161.22 111.231 161.272 111.002 161.334C110.804 161.386 110.57 161.454 110.299 161.537C110.038 161.631 109.752 161.751 109.439 161.897C109.637 161.751 109.783 161.61 109.877 161.475C109.981 161.35 110.054 161.246 110.096 161.162C110.137 161.058 110.153 160.97 110.143 160.897C110.09 160.793 109.971 160.579 109.783 160.256C109.606 159.985 109.346 159.589 109.002 159.069C108.658 158.548 108.169 157.839 107.533 156.944C107.502 156.954 107.45 156.985 107.377 157.037C107.314 157.089 107.221 157.162 107.096 157.256C106.971 157.339 106.804 157.464 106.596 157.631L107.018 160.365C106.924 160.407 106.82 160.444 106.705 160.475C106.601 160.506 106.502 160.532 106.408 160.553C106.294 160.584 106.179 160.605 106.064 160.615C105.95 160.626 105.814 160.647 105.658 160.678C105.523 160.699 105.361 160.725 105.174 160.756C104.986 160.798 104.773 160.845 104.533 160.897C104.669 160.803 104.778 160.694 104.861 160.569C104.945 160.454 105.012 160.345 105.064 160.24C105.116 160.126 105.163 160.006 105.205 159.881C105.226 159.777 105.247 159.506 105.268 159.069C105.299 158.631 105.325 158.11 105.346 157.506C105.366 156.892 105.382 156.235 105.393 155.537C105.413 154.839 105.424 154.183 105.424 153.569C105.424 152.944 105.419 152.402 105.408 151.944C105.398 151.475 105.377 151.173 105.346 151.037C105.294 150.871 105.231 150.694 105.158 150.506C105.096 150.339 105.007 150.152 104.893 149.944C104.788 149.725 104.658 149.49 104.502 149.24ZM117.777 157.99C118.069 157.99 118.34 157.959 118.59 157.897C118.798 157.845 118.996 157.761 119.184 157.647C119.382 157.522 119.512 157.339 119.574 157.1C119.783 157.142 119.96 157.178 120.106 157.209C120.251 157.23 120.376 157.251 120.481 157.272C120.595 157.303 120.694 157.324 120.777 157.334C120.861 157.355 120.96 157.376 121.074 157.397C121.179 157.418 121.304 157.444 121.449 157.475C121.606 157.496 121.788 157.527 121.996 157.569C121.84 157.548 121.679 157.563 121.512 157.615C121.356 157.668 121.205 157.725 121.059 157.787C120.892 157.86 120.736 157.949 120.59 158.053C120.496 158.115 120.387 158.209 120.262 158.334C120.147 158.459 119.981 158.579 119.762 158.694C119.543 158.808 119.251 158.907 118.887 158.99C118.533 159.063 118.074 159.089 117.512 159.069C116.835 159.048 116.267 158.928 115.809 158.709C115.35 158.48 114.981 158.204 114.699 157.881C114.418 157.548 114.215 157.188 114.09 156.803C113.965 156.418 113.897 156.058 113.887 155.725C113.876 155.392 113.975 155.043 114.184 154.678C114.392 154.313 114.684 153.98 115.059 153.678C115.444 153.376 115.908 153.131 116.449 152.944C116.991 152.746 117.585 152.647 118.231 152.647C118.606 152.647 118.949 152.694 119.262 152.787C119.585 152.871 119.876 152.985 120.137 153.131C120.408 153.277 120.642 153.444 120.84 153.631C121.038 153.808 121.205 153.99 121.34 154.178C121.475 154.376 121.59 154.584 121.684 154.803C121.767 154.99 121.835 155.204 121.887 155.444C121.939 155.683 121.955 155.928 121.934 156.178C121.142 156.199 120.501 156.214 120.012 156.225C119.533 156.235 119.158 156.24 118.887 156.24H118.184H117.652C117.465 156.24 117.22 156.246 116.918 156.256C116.616 156.267 116.246 156.282 115.809 156.303C115.861 156.72 115.991 157.043 116.199 157.272C116.418 157.49 116.647 157.657 116.887 157.772C117.158 157.897 117.455 157.97 117.777 157.99ZM116.371 155.178C116.705 155.199 116.981 155.214 117.199 155.225C117.429 155.235 117.616 155.246 117.762 155.256C117.918 155.267 118.043 155.272 118.137 155.272H118.527C118.788 155.272 119.272 155.256 119.981 155.225C119.949 154.767 119.85 154.418 119.684 154.178C119.527 153.938 119.361 153.761 119.184 153.647C118.975 153.522 118.746 153.449 118.496 153.428C117.819 153.438 117.314 153.579 116.981 153.85C116.658 154.121 116.455 154.563 116.371 155.178ZM124.803 158.787C124.876 158.444 124.928 158.142 124.959 157.881C125.001 157.61 125.032 157.386 125.053 157.209C125.074 157.001 125.084 156.824 125.084 156.678C125.074 156.501 125.064 156.293 125.053 156.053C125.053 155.803 125.043 155.558 125.022 155.319C125.011 155.069 124.996 154.85 124.975 154.662C124.954 154.464 124.928 154.324 124.897 154.24C124.855 154.157 124.798 154.069 124.725 153.975C124.579 153.798 124.366 153.626 124.084 153.459C124.324 153.407 124.527 153.365 124.694 153.334C124.871 153.293 125.017 153.256 125.131 153.225C125.256 153.183 125.366 153.147 125.459 153.115C125.543 153.084 125.642 153.053 125.756 153.022C125.85 153.001 125.965 152.975 126.1 152.944C126.235 152.912 126.392 152.876 126.569 152.834L126.522 154.256C126.855 153.86 127.194 153.563 127.537 153.365C127.881 153.168 128.204 153.027 128.506 152.944C128.85 152.839 129.189 152.787 129.522 152.787C129.939 152.808 130.324 152.876 130.678 152.99C131.043 153.105 131.355 153.24 131.616 153.397C131.886 153.543 132.105 153.699 132.272 153.865C132.439 154.032 132.537 154.178 132.569 154.303C132.694 154.709 132.725 155.084 132.662 155.428C132.6 155.761 132.517 156.089 132.412 156.412C132.319 156.725 132.235 157.037 132.162 157.35C132.1 157.662 132.126 158.001 132.241 158.365C132.282 158.459 132.324 158.553 132.366 158.647C132.407 158.73 132.459 158.813 132.522 158.897C132.584 158.98 132.657 159.048 132.741 159.1C132.626 159.089 132.511 159.084 132.397 159.084C132.282 159.074 132.178 159.063 132.084 159.053C131.97 159.043 131.866 159.032 131.772 159.022C131.668 159.011 131.527 159.006 131.35 159.006C131.048 159.006 130.579 159.022 129.944 159.053C130.037 158.834 130.11 158.652 130.162 158.506C130.225 158.35 130.277 158.225 130.319 158.131C130.36 158.017 130.392 157.928 130.412 157.865C130.537 157.563 130.61 157.22 130.631 156.834C130.662 156.449 130.636 156.058 130.553 155.662C130.522 155.527 130.47 155.365 130.397 155.178C130.324 154.99 130.225 154.808 130.1 154.631C129.985 154.454 129.845 154.303 129.678 154.178C129.522 154.053 129.34 153.98 129.131 153.959C128.923 153.938 128.689 153.99 128.428 154.115C128.178 154.24 127.907 154.47 127.616 154.803C127.397 155.084 127.225 155.428 127.1 155.834C126.985 156.178 126.907 156.61 126.866 157.131C126.824 157.642 126.886 158.24 127.053 158.928C126.907 158.907 126.772 158.897 126.647 158.897C126.522 158.886 126.418 158.876 126.334 158.865C126.23 158.855 126.136 158.845 126.053 158.834C125.959 158.834 125.855 158.829 125.741 158.819C125.636 158.819 125.506 158.819 125.35 158.819C125.194 158.808 125.011 158.798 124.803 158.787ZM142.969 148.537C143.167 148.548 143.381 148.553 143.61 148.553C143.808 148.553 144.032 148.558 144.282 148.569C144.542 148.569 144.813 148.558 145.094 148.537C144.844 148.652 144.626 148.819 144.438 149.037C144.251 149.256 144.1 149.475 143.985 149.694C143.839 149.954 143.719 150.225 143.626 150.506C143.574 150.673 143.532 150.97 143.501 151.397C143.469 151.813 143.443 152.303 143.423 152.865C143.412 153.428 143.407 154.022 143.407 154.647C143.407 155.272 143.412 155.871 143.423 156.444C143.433 157.006 143.449 157.506 143.469 157.944C143.49 158.381 143.516 158.688 143.548 158.865C143.589 159.074 143.641 159.272 143.704 159.459C143.756 159.626 143.824 159.798 143.907 159.975C143.99 160.142 144.094 160.277 144.219 160.381L142.626 161.1C142.542 160.985 142.475 160.865 142.423 160.74C142.37 160.626 142.329 160.522 142.298 160.428C142.256 160.313 142.23 160.209 142.219 160.115C142.199 159.99 142.178 159.855 142.157 159.709C142.136 159.553 142.11 159.407 142.079 159.272C142.058 159.126 142.042 159.006 142.032 158.912C142.021 158.819 142.021 158.761 142.032 158.74C142.042 158.72 141.98 158.813 141.844 159.022C141.709 159.22 141.506 159.454 141.235 159.725C140.975 159.985 140.652 160.24 140.266 160.49C139.881 160.73 139.449 160.881 138.969 160.944C138.48 161.006 138.027 160.912 137.61 160.662C137.204 160.412 136.855 160.063 136.563 159.615C136.271 159.157 136.048 158.631 135.891 158.037C135.745 157.433 135.688 156.819 135.719 156.194C135.74 155.777 135.834 155.407 136.001 155.084C136.167 154.751 136.376 154.464 136.626 154.225C136.886 153.975 137.167 153.767 137.469 153.6C137.782 153.423 138.084 153.277 138.376 153.162C138.678 153.048 138.959 152.964 139.219 152.912C139.48 152.86 139.688 152.824 139.844 152.803C140.032 152.793 140.245 152.824 140.485 152.897C140.693 152.959 140.933 153.063 141.204 153.209C141.485 153.355 141.798 153.574 142.141 153.865C142.079 152.824 142.021 151.99 141.969 151.365C141.917 150.73 141.865 150.246 141.813 149.912C141.761 149.517 141.714 149.246 141.673 149.1C141.62 148.996 141.553 148.892 141.469 148.787C141.396 148.704 141.303 148.621 141.188 148.537C141.084 148.444 140.959 148.371 140.813 148.319C141.084 148.371 141.344 148.407 141.594 148.428C141.844 148.449 142.074 148.47 142.282 148.49C142.521 148.511 142.751 148.527 142.969 148.537ZM139.048 154.365C138.85 154.438 138.688 154.563 138.563 154.74C138.449 154.918 138.355 155.131 138.282 155.381C138.209 155.621 138.157 155.881 138.126 156.162C138.105 156.433 138.089 156.699 138.079 156.959C138.079 157.209 138.079 157.438 138.079 157.647C138.079 157.855 138.079 158.011 138.079 158.115C138.079 158.178 138.089 158.293 138.11 158.459C138.141 158.615 138.204 158.782 138.298 158.959C138.391 159.126 138.521 159.277 138.688 159.412C138.865 159.548 139.1 159.615 139.391 159.615C139.631 159.595 139.886 159.511 140.157 159.365C140.396 159.24 140.667 159.043 140.969 158.772C141.282 158.49 141.615 158.089 141.969 157.569C141.949 157.235 141.933 156.959 141.923 156.74C141.923 156.522 141.917 156.345 141.907 156.209C141.896 156.053 141.891 155.928 141.891 155.834V155.6C141.891 155.537 141.891 155.47 141.891 155.397C141.891 155.324 141.896 155.256 141.907 155.194C141.615 154.985 141.355 154.808 141.126 154.662C140.907 154.506 140.688 154.392 140.469 154.319C140.261 154.235 140.042 154.199 139.813 154.209C139.594 154.209 139.339 154.261 139.048 154.365ZM157.599 153.506C157.87 153.506 158.151 153.558 158.442 153.662C158.734 153.756 159.015 153.881 159.286 154.037C159.557 154.183 159.802 154.345 160.021 154.522C160.25 154.688 160.437 154.85 160.583 155.006C160.844 155.287 161.021 155.668 161.114 156.147C161.219 156.615 161.239 157.1 161.177 157.6C161.114 158.089 160.969 158.553 160.739 158.99C160.51 159.428 160.192 159.751 159.786 159.959C159.495 160.105 159.208 160.22 158.927 160.303C158.646 160.386 158.375 160.449 158.114 160.49C157.854 160.532 157.609 160.553 157.38 160.553C157.151 160.553 156.953 160.548 156.786 160.537C156.474 160.517 156.146 160.407 155.802 160.209C155.469 160.011 155.151 159.767 154.849 159.475C154.557 159.183 154.307 158.865 154.099 158.522C153.89 158.168 153.765 157.834 153.724 157.522C153.661 157.095 153.651 156.647 153.692 156.178C153.734 155.709 153.885 155.277 154.146 154.881C154.416 154.485 154.823 154.157 155.364 153.897C155.916 153.636 156.661 153.506 157.599 153.506ZM157.083 159.569C157.198 159.589 157.354 159.563 157.552 159.49C157.75 159.407 157.942 159.277 158.13 159.1C158.328 158.923 158.5 158.699 158.646 158.428C158.802 158.147 158.896 157.808 158.927 157.412C158.958 157.027 158.958 156.673 158.927 156.35C158.906 156.027 158.859 155.746 158.786 155.506C158.713 155.256 158.63 155.053 158.536 154.897C158.442 154.74 158.344 154.631 158.239 154.569C158.062 154.475 157.849 154.402 157.599 154.35C157.349 154.287 157.135 154.298 156.958 154.381C156.875 154.423 156.771 154.511 156.646 154.647C156.521 154.782 156.396 154.954 156.271 155.162C156.146 155.36 156.031 155.589 155.927 155.85C155.833 156.11 155.765 156.381 155.724 156.662C155.682 156.944 155.672 157.246 155.692 157.569C155.724 157.892 155.791 158.199 155.896 158.49C156 158.772 156.146 159.017 156.333 159.225C156.531 159.423 156.781 159.537 157.083 159.569ZM164.171 158.787C164.244 158.444 164.296 158.142 164.327 157.881C164.369 157.61 164.4 157.386 164.421 157.209C164.442 157.001 164.452 156.824 164.452 156.678C164.442 156.501 164.432 156.293 164.421 156.053C164.421 155.803 164.411 155.558 164.39 155.319C164.38 155.069 164.364 154.85 164.343 154.662C164.322 154.464 164.296 154.324 164.265 154.24C164.223 154.157 164.166 154.069 164.093 153.975C163.947 153.798 163.734 153.626 163.452 153.459C163.692 153.407 163.895 153.365 164.062 153.334C164.239 153.293 164.385 153.256 164.499 153.225C164.624 153.183 164.734 153.147 164.827 153.115C164.911 153.084 165.01 153.053 165.124 153.022C165.218 153.001 165.333 152.975 165.468 152.944C165.604 152.912 165.76 152.876 165.937 152.834L165.89 154.256C166.223 153.86 166.562 153.563 166.906 153.365C167.249 153.168 167.572 153.027 167.874 152.944C168.218 152.839 168.557 152.787 168.89 152.787C169.307 152.808 169.692 152.876 170.046 152.99C170.411 153.105 170.723 153.24 170.984 153.397C171.255 153.543 171.473 153.699 171.64 153.865C171.807 154.032 171.906 154.178 171.937 154.303C172.062 154.709 172.093 155.084 172.031 155.428C171.968 155.761 171.885 156.089 171.781 156.412C171.687 156.725 171.604 157.037 171.531 157.35C171.468 157.662 171.494 158.001 171.609 158.365C171.65 158.459 171.692 158.553 171.734 158.647C171.775 158.73 171.827 158.813 171.89 158.897C171.952 158.98 172.025 159.048 172.109 159.1C171.994 159.089 171.88 159.084 171.765 159.084C171.65 159.074 171.546 159.063 171.452 159.053C171.338 159.043 171.234 159.032 171.14 159.022C171.036 159.011 170.895 159.006 170.718 159.006C170.416 159.006 169.947 159.022 169.312 159.053C169.406 158.834 169.479 158.652 169.531 158.506C169.593 158.35 169.645 158.225 169.687 158.131C169.729 158.017 169.76 157.928 169.781 157.865C169.906 157.563 169.979 157.22 169.999 156.834C170.031 156.449 170.005 156.058 169.921 155.662C169.89 155.527 169.838 155.365 169.765 155.178C169.692 154.99 169.593 154.808 169.468 154.631C169.354 154.454 169.213 154.303 169.046 154.178C168.89 154.053 168.708 153.98 168.499 153.959C168.291 153.938 168.057 153.99 167.796 154.115C167.546 154.24 167.275 154.47 166.984 154.803C166.765 155.084 166.593 155.428 166.468 155.834C166.354 156.178 166.275 156.61 166.234 157.131C166.192 157.642 166.255 158.24 166.421 158.928C166.275 158.907 166.14 158.897 166.015 158.897C165.89 158.886 165.786 158.876 165.702 158.865C165.598 158.855 165.505 158.845 165.421 158.834C165.327 158.834 165.223 158.829 165.109 158.819C165.005 158.819 164.874 158.819 164.718 158.819C164.562 158.808 164.38 158.798 164.171 158.787ZM175.181 160.944C175.285 160.787 175.369 160.642 175.431 160.506C175.494 160.371 175.546 160.256 175.587 160.162C175.629 160.048 175.66 159.944 175.681 159.85C175.692 159.787 175.697 159.605 175.697 159.303C175.697 159.001 175.686 158.621 175.666 158.162C175.655 157.704 175.64 157.188 175.619 156.615C175.608 156.043 175.587 155.459 175.556 154.865C175.535 154.272 175.509 153.694 175.478 153.131C175.457 152.569 175.436 152.063 175.416 151.615C175.395 151.157 175.374 150.782 175.353 150.49C175.332 150.199 175.317 150.032 175.306 149.99C175.285 149.928 175.249 149.865 175.197 149.803C175.093 149.678 174.916 149.558 174.666 149.444C175.197 149.308 175.603 149.199 175.884 149.115C176.051 149.074 176.197 149.032 176.322 148.99C176.436 148.949 176.551 148.907 176.666 148.865C176.759 148.824 176.864 148.777 176.978 148.725C177.093 148.662 177.197 148.595 177.291 148.522C177.239 148.824 177.197 149.115 177.166 149.397C177.134 149.678 177.108 149.938 177.087 150.178C177.067 150.449 177.056 150.709 177.056 150.959C177.004 151.47 176.973 152.027 176.962 152.631C176.962 153.225 176.968 153.829 176.978 154.444C176.989 155.058 177.009 155.657 177.041 156.24C177.072 156.824 177.103 157.355 177.134 157.834C177.176 158.303 177.212 158.704 177.244 159.037C177.285 159.36 177.317 159.569 177.337 159.662C177.379 159.819 177.421 159.97 177.462 160.115C177.504 160.24 177.551 160.371 177.603 160.506C177.655 160.652 177.718 160.767 177.791 160.85H176.275C176.14 160.85 176.009 160.855 175.884 160.865C175.77 160.876 175.65 160.886 175.525 160.897C175.4 160.907 175.285 160.923 175.181 160.944ZM179.316 152.522C179.525 152.553 179.712 152.579 179.879 152.6C180.035 152.61 180.176 152.621 180.301 152.631C180.436 152.642 180.566 152.647 180.691 152.647C180.806 152.647 180.952 152.642 181.129 152.631C181.275 152.621 181.462 152.61 181.691 152.6C181.931 152.579 182.212 152.553 182.535 152.522C182.514 152.563 182.473 152.694 182.41 152.912C182.348 153.121 182.285 153.381 182.223 153.694C182.16 153.996 182.103 154.334 182.051 154.709C182.009 155.074 181.988 155.438 181.988 155.803C181.999 156.157 182.045 156.496 182.129 156.819C182.212 157.131 182.348 157.386 182.535 157.584C182.931 157.99 183.28 158.235 183.582 158.319C183.894 158.402 184.165 158.392 184.394 158.287C184.624 158.183 184.811 158.027 184.957 157.819C185.103 157.61 185.207 157.418 185.269 157.24C185.426 156.761 185.519 156.256 185.551 155.725C185.571 155.267 185.535 154.756 185.441 154.194C185.348 153.631 185.124 153.058 184.769 152.475C185.04 152.496 185.275 152.511 185.473 152.522C185.67 152.532 185.842 152.543 185.988 152.553C186.155 152.563 186.301 152.574 186.426 152.584C186.54 152.595 186.676 152.595 186.832 152.584C186.967 152.584 187.129 152.579 187.316 152.569C187.514 152.548 187.733 152.527 187.973 152.506C188.014 153.527 188.051 154.438 188.082 155.24C188.113 156.032 188.134 156.735 188.144 157.35C188.165 157.954 188.176 158.48 188.176 158.928C188.176 159.365 188.176 159.735 188.176 160.037C188.165 160.756 188.134 161.23 188.082 161.459C187.999 161.782 187.848 162.105 187.629 162.428C187.42 162.751 187.155 163.037 186.832 163.287C186.509 163.548 186.134 163.746 185.707 163.881C185.29 164.027 184.832 164.079 184.332 164.037C183.842 163.996 183.452 163.928 183.16 163.834C182.879 163.751 182.655 163.652 182.488 163.537C182.332 163.423 182.217 163.303 182.144 163.178C182.082 163.053 182.035 162.923 182.004 162.787C181.973 162.662 181.941 162.543 181.91 162.428C181.879 162.313 181.816 162.214 181.723 162.131C181.608 162.037 181.488 161.944 181.363 161.85C181.249 161.767 181.124 161.683 180.988 161.6C180.863 161.517 180.738 161.449 180.613 161.397L183.941 161.209C183.848 161.334 183.78 161.449 183.738 161.553C183.696 161.657 183.67 161.746 183.66 161.819C183.65 161.912 183.655 161.99 183.676 162.053C183.717 162.178 183.79 162.313 183.894 162.459C184.009 162.615 184.155 162.735 184.332 162.819C184.509 162.912 184.717 162.944 184.957 162.912C185.207 162.881 185.488 162.751 185.801 162.522C186.061 162.324 186.28 162.006 186.457 161.569C186.603 161.194 186.717 160.668 186.801 159.99C186.884 159.313 186.868 158.423 186.754 157.319C186.566 157.964 186.311 158.459 185.988 158.803C185.665 159.147 185.342 159.397 185.019 159.553C184.644 159.74 184.254 159.839 183.848 159.85C183.306 159.829 182.842 159.761 182.457 159.647C182.071 159.522 181.754 159.355 181.504 159.147C181.254 158.938 181.056 158.694 180.91 158.412C180.775 158.121 180.676 157.798 180.613 157.444C180.551 157.089 180.519 156.735 180.519 156.381C180.519 156.017 180.519 155.678 180.519 155.365C180.53 155.053 180.535 154.772 180.535 154.522C180.535 154.261 180.509 154.053 180.457 153.897C180.394 153.74 180.311 153.584 180.207 153.428C180.124 153.293 180.009 153.147 179.863 152.99C179.707 152.824 179.525 152.668 179.316 152.522Z" fill="#81450A"/>
</svg>
