<svg width="40" height="39" viewBox="0 0 40 39" fill="none" xmlns="http://www.w3.org/2000/svg">
<path d="M39.0391 29.3586C38.6908 31.9918 37.3911 34.4089 35.3826 36.1583C33.3742 37.9077 30.7944 38.8699 28.125 38.8652C12.6172 38.8652 1.76731e-05 26.3116 1.76731e-05 10.882C-0.00476744 8.22606 0.962297 5.65925 2.72059 3.66093C4.47888 1.6626 6.90816 0.369426 9.5547 0.0229261C10.2239 -0.0583788 10.9017 0.0778468 11.4867 0.411268C12.0717 0.744688 12.5327 1.25742 12.8008 1.87293L16.9258 11.0355V11.0588C17.131 11.53 17.2158 12.0443 17.1725 12.556C17.1292 13.0677 16.9593 13.5608 16.6778 13.9912C16.6426 14.0437 16.6055 14.0923 16.5664 14.1408L12.5 18.9368C13.9629 21.8945 17.0723 24.961 20.084 26.4204L24.8379 22.3959C24.8846 22.3568 24.9335 22.3205 24.9844 22.2871C25.4166 22.0002 25.9139 21.8251 26.4312 21.7776C26.9485 21.7301 27.4696 21.8117 27.9473 22.015L27.9727 22.0267L37.1738 26.1289C37.7936 26.3947 38.3102 26.8529 38.6464 27.4351C38.9826 28.0173 39.1204 28.6921 39.0391 29.3586Z" fill="#FFD233"/>
</svg>
