<svg width="31" height="28" viewBox="0 0 31 28" fill="none" xmlns="http://www.w3.org/2000/svg">
<path d="M30.3831 5.56793C30.3019 5.47865 30.2002 5.40682 30.0853 5.35752C29.9704 5.30823 29.845 5.28267 29.7181 5.28267H6.20329L5.45745 1.51877C5.37295 1.09252 5.12763 0.706962 4.76431 0.429388C4.40099 0.151814 3.94273 -0.000155297 3.46951 1.19088e-07H0.865575C0.63601 1.19088e-07 0.415848 0.0834848 0.253521 0.232089C0.0911943 0.380692 0 0.582242 0 0.7924C0 1.00256 0.0911943 1.20411 0.253521 1.35271C0.415848 1.50132 0.63601 1.5848 0.865575 1.5848H3.4623C3.53062 1.58378 3.59712 1.60499 3.64995 1.64465C3.70279 1.68432 3.73854 1.73986 3.75083 1.80139L7.43096 20.3303C7.5477 20.9214 7.86229 21.4646 8.33116 21.8848C7.76497 22.2993 7.34217 22.8553 7.11391 23.4852C6.88566 24.1152 6.86173 24.7922 7.04504 25.4344C7.22834 26.0766 7.61101 26.6563 8.14675 27.1035C8.68248 27.5507 9.34831 27.8462 10.0637 27.9542C10.779 28.0622 11.5132 27.9781 12.1775 27.7121C12.8417 27.446 13.4075 27.0095 13.8063 26.4552C14.2051 25.9009 14.42 25.2527 14.4247 24.589C14.4295 23.9253 14.2241 23.2745 13.8333 22.7155H21.3667C20.9182 23.3581 20.7161 24.1191 20.7923 24.8785C20.8685 25.6379 21.2186 26.3525 21.7876 26.9095C22.3565 27.4666 23.1118 27.8344 23.9344 27.9549C24.7569 28.0755 25.5999 27.942 26.3304 27.5754C27.0609 27.2088 27.6372 26.63 27.9686 25.9304C28.3 25.2307 28.3675 24.4499 28.1606 23.7112C27.9536 22.9726 27.4839 22.318 26.8255 21.8507C26.1672 21.3834 25.3577 21.1301 24.5246 21.1307H10.5557C10.2178 21.1307 9.89068 21.0222 9.63126 20.8241C9.37184 20.6259 9.19662 20.3507 9.13615 20.0464L8.6168 17.4328H25.6932C26.4364 17.433 27.1562 17.1943 27.727 16.7584C28.2978 16.3226 28.6833 15.7171 28.8164 15.0477L30.5692 6.21638C30.5919 6.10241 30.5869 5.98528 30.5548 5.87325C30.5226 5.76121 30.464 5.65699 30.3831 5.56793ZM12.6951 24.5644C12.6951 24.9301 12.5767 25.2876 12.3547 25.5916C12.1328 25.8957 11.8174 26.1326 11.4483 26.2726C11.0793 26.4125 10.6732 26.4491 10.2814 26.3778C9.88963 26.3065 9.52976 26.1304 9.2473 25.8718C8.96484 25.6132 8.77249 25.2838 8.69456 24.9251C8.61663 24.5664 8.65663 24.1947 8.80949 23.8568C8.96236 23.519 9.22122 23.2302 9.55336 23.0271C9.88549 22.8239 10.276 22.7155 10.6754 22.7155C11.2111 22.7155 11.7248 22.9103 12.1036 23.257C12.4823 23.6037 12.6951 24.074 12.6951 24.5644ZM26.5443 24.5644C26.5443 24.9301 26.4259 25.2876 26.2039 25.5916C25.982 25.8957 25.6666 26.1326 25.2975 26.2726C24.9285 26.4125 24.5224 26.4491 24.1306 26.3778C23.7388 26.3065 23.379 26.1304 23.0965 25.8718C22.814 25.6132 22.6217 25.2838 22.5438 24.9251C22.4658 24.5664 22.5058 24.1947 22.6587 23.8568C22.8116 23.519 23.0704 23.2302 23.4026 23.0271C23.7347 22.8239 24.1252 22.7155 24.5246 22.7155C25.0603 22.7155 25.574 22.9103 25.9528 23.257C26.3315 23.6037 26.5443 24.074 26.5443 24.5644ZM27.1127 14.7637C27.0522 15.068 26.877 15.3432 26.6176 15.5414C26.3582 15.7395 26.031 15.848 25.6932 15.848H8.30231L6.51922 6.86747H28.6808L27.1127 14.7637Z" fill="#FFBC0F" fill-opacity="0.93"/>
</svg>
