<svg width="35" height="50" viewBox="0 0 35 50" fill="none" xmlns="http://www.w3.org/2000/svg">
<path d="M17.1124 23.8376C16.1668 23.8376 15.26 23.2917 14.5915 22.3198C13.9229 21.348 13.5473 20.0299 13.5473 18.6556C13.5473 17.2812 13.9229 15.9631 14.5915 14.9913C15.26 14.0194 16.1668 13.4735 17.1124 13.4735C18.0579 13.4735 18.9647 14.0194 19.6332 14.9913C20.3018 15.9631 20.6774 17.2812 20.6774 18.6556C20.6774 19.3361 20.5852 20.0099 20.4061 20.6386C20.2269 21.2674 19.9643 21.8386 19.6332 22.3198C19.3022 22.801 18.9092 23.1827 18.4767 23.4432C18.0441 23.7036 17.5805 23.8376 17.1124 23.8376ZM17.1124 4.14575C14.4649 4.14575 11.9259 5.67446 10.0539 8.39557C8.18182 11.1167 7.13013 14.8073 7.13013 18.6556C7.13013 29.5379 17.1124 45.6023 17.1124 45.6023C17.1124 45.6023 27.0946 29.5379 27.0946 18.6556C27.0946 14.8073 26.0429 11.1167 24.1709 8.39557C22.2988 5.67446 19.7598 4.14575 17.1124 4.14575Z" fill="#FFD233"/>
</svg>
