<svg width="43" height="34" viewBox="0 0 43 34" fill="none" xmlns="http://www.w3.org/2000/svg">
<path fill-rule="evenodd" clip-rule="evenodd" d="M2.09983 2.12395C-2.38419e-07 4.24549 0 7.66459 0 14.498V19.3306C0 26.164 -2.38419e-07 29.5831 2.09983 31.7046C4.19728 33.8286 7.57755 33.8286 14.3333 33.8286H28.6667C35.4224 33.8286 38.8027 33.8286 40.9002 31.7046C43 29.5831 43 26.164 43 19.3306V14.498C43 7.66459 43 4.24549 40.9002 2.12395C38.8027 4.74433e-07 35.4224 0 28.6667 0H14.3333C7.57755 0 4.19728 4.74433e-07 2.09983 2.12395ZM8.4925 7.65492C7.96537 7.29925 7.32014 7.16996 6.69876 7.29548C6.07738 7.421 5.53075 7.79106 5.17911 8.32424C4.82748 8.85743 4.69965 9.51007 4.82375 10.1386C4.94784 10.7671 5.3137 11.32 5.84083 11.6757L18.8507 20.447C19.6354 20.9758 20.5571 21.258 21.5 21.258C22.4429 21.258 23.3646 20.9758 24.1493 20.447L37.1592 11.6757C37.6863 11.32 38.0522 10.7671 38.1763 10.1386C38.3003 9.51007 38.1725 8.85743 37.8209 8.32424C37.4693 7.79106 36.9226 7.421 36.3012 7.29548C35.6799 7.16996 35.0346 7.29925 34.5075 7.65492L21.5 16.4262L8.4925 7.65492Z" fill="#FFD233"/>
</svg>
