<svg width="38" height="38" viewBox="0 0 38 38" fill="none" xmlns="http://www.w3.org/2000/svg">
<g clip-path="url(#clip0_7_152)">
<path d="M15.9916 23.6746C15.543 23.6746 15.1672 23.5226 14.8643 23.2186C14.5613 22.9146 14.4093 22.5389 14.4083 22.0913C14.4083 21.6427 14.5603 21.2669 14.8643 20.964C15.1683 20.661 15.5441 20.509 15.9916 20.508H19.1583C19.6069 20.508 19.9832 20.66 20.2872 20.964C20.5912 21.268 20.7427 21.6438 20.7416 22.0913C20.7416 22.5399 20.5896 22.9162 20.2856 23.2202C19.9816 23.5242 19.6058 23.6757 19.1583 23.6746H15.9916ZM15.9916 17.3413C15.543 17.3413 15.1672 17.1893 14.8643 16.8853C14.5613 16.5813 14.4093 16.2055 14.4083 15.758C14.4083 15.3094 14.5603 14.9336 14.8643 14.6306C15.1683 14.3277 15.5441 14.1757 15.9916 14.1746H33.4083C33.8569 14.1746 34.2332 14.3266 34.5372 14.6306C34.8412 14.9346 34.9927 15.3104 34.9916 15.758C34.9916 16.2066 34.8396 16.5829 34.5356 16.8869C34.2316 17.1909 33.8558 17.3424 33.4083 17.3413H15.9916ZM15.9916 11.008C15.543 11.008 15.1672 10.856 14.8643 10.552C14.5613 10.248 14.4093 9.8722 14.4083 9.42464C14.4083 8.97603 14.5603 8.60025 14.8643 8.29731C15.1683 7.99436 15.5441 7.84236 15.9916 7.84131H33.4083C33.8569 7.84131 34.2332 7.99331 34.5372 8.29731C34.8412 8.60131 34.9927 8.97709 34.9916 9.42464C34.9916 9.87325 34.8396 10.2496 34.5356 10.5536C34.2316 10.8576 33.8558 11.009 33.4083 11.008H15.9916ZM30.1625 29.3351C29.9513 29.3351 29.7534 29.3023 29.5687 29.2369C29.384 29.1714 29.2125 29.059 29.0541 28.8996L24.5416 24.3871C24.225 24.0705 24.073 23.6947 24.0856 23.2598C24.0983 22.8249 24.2635 22.4486 24.5812 22.1309C24.8979 21.8142 25.2742 21.6559 25.7101 21.6559C26.1461 21.6559 26.5218 21.8142 26.8375 22.1309L30.1625 25.4955L37.9604 17.6976C38.277 17.3809 38.6533 17.2289 39.0893 17.2416C39.5252 17.2542 39.901 17.4194 40.2166 17.7371C40.5069 18.0538 40.6589 18.4233 40.6726 18.8455C40.6863 19.2677 40.5343 19.6371 40.2166 19.9538L31.2708 28.8996C31.1125 29.058 30.9409 29.1704 30.7562 29.2369C30.5715 29.3034 30.3736 29.3361 30.1625 29.3351ZM9.65828 11.008C9.20967 11.008 8.8339 10.856 8.53095 10.552C8.22801 10.248 8.07601 9.8722 8.07495 9.42464C8.07495 8.97603 8.22695 8.60025 8.53095 8.29731C8.83495 7.99436 9.21073 7.84236 9.65828 7.84131C10.1069 7.84131 10.4832 7.99331 10.7872 8.29731C11.0912 8.60131 11.2427 8.97709 11.2416 9.42464C11.2416 9.87325 11.0896 10.2496 10.7856 10.5536C10.4816 10.8576 10.1058 11.009 9.65828 11.008ZM9.65828 17.3413C9.20967 17.3413 8.8339 17.1893 8.53095 16.8853C8.22801 16.5813 8.07601 16.2055 8.07495 15.758C8.07495 15.3094 8.22695 14.9336 8.53095 14.6306C8.83495 14.3277 9.21073 14.1757 9.65828 14.1746C10.1069 14.1746 10.4832 14.3266 10.7872 14.6306C11.0912 14.9346 11.2427 15.3104 11.2416 15.758C11.2416 16.2066 11.0896 16.5829 10.7856 16.8869C10.4816 17.1909 10.1058 17.3424 9.65828 17.3413ZM9.65828 23.6746C9.20967 23.6746 8.8339 23.5226 8.53095 23.2186C8.22801 22.9146 8.07601 22.5389 8.07495 22.0913C8.07495 21.6427 8.22695 21.2669 8.53095 20.964C8.83495 20.661 9.21073 20.509 9.65828 20.508C10.1069 20.508 10.4832 20.66 10.7872 20.964C11.0912 21.268 11.2427 21.6438 11.2416 22.0913C11.2416 22.5399 11.0896 22.9162 10.7856 23.2202C10.4816 23.5242 10.1058 23.6757 9.65828 23.6746Z" fill="#FFD233"/>
</g>
<defs>
<clipPath id="clip0_7_152">
<rect width="38" height="38" fill="white"/>
</clipPath>
</defs>
</svg>
