<svg width="35" height="50" viewBox="0 0 35 50" fill="none" xmlns="http://www.w3.org/2000/svg">
<rect width="35" height="50" rx="17.5" fill="#B66B13"/>
<path d="M10.2083 31.25H13.1249C13.1249 33.5 15.1228 35.4167 17.4999 35.4167C19.877 35.4167 21.8749 33.5 21.8749 31.25C21.8749 28.9583 20.3583 28.125 17.1499 27.0208C14.0583 25.9167 10.2083 24.5417 10.2083 18.75C10.2083 15.0208 12.352 11.8542 15.3124 10.7917V6.25H19.6874V10.7917C22.6478 11.8542 24.7916 15.0208 24.7916 18.75H21.8749C21.8749 16.5 19.877 14.5833 17.4999 14.5833C15.1228 14.5833 13.1249 16.5 13.1249 18.75C13.1249 21.0417 14.6416 21.875 17.8499 22.9792C20.9416 24.0833 24.7916 25.4583 24.7916 31.25C24.7916 34.9792 22.6478 38.1458 19.6874 39.2083V43.75H15.3124V39.2083C12.352 38.1458 10.2083 34.9792 10.2083 31.25Z" fill="#81450A"/>
</svg>
