<svg width="50" height="50" viewBox="0 0 50 50" fill="none" xmlns="http://www.w3.org/2000/svg">
<path d="M45.2891 34.0229C44.9408 36.6561 43.6411 39.0732 41.6326 40.8226C39.6242 42.572 37.0444 43.5342 34.375 43.5295C18.8672 43.5295 6.25002 30.9759 6.25002 15.5463C6.24523 12.8904 7.2123 10.3236 8.97059 8.32523C10.7289 6.32691 13.1582 5.03373 15.8047 4.68723C16.4739 4.60593 17.1517 4.74215 17.7367 5.07557C18.3217 5.409 18.7827 5.92173 19.0508 6.53723L23.1758 15.6998V15.7231C23.381 16.1943 23.4658 16.7087 23.4225 17.2204C23.3792 17.7321 23.2093 18.2251 22.9278 18.6555C22.8926 18.708 22.8555 18.7566 22.8164 18.8051L18.75 23.6012C20.2129 26.5588 23.3223 29.6253 26.334 31.0847L31.0879 27.0602C31.1346 27.0211 31.1835 26.9848 31.2344 26.9514C31.6666 26.6645 32.1639 26.4895 32.6812 26.442C33.1985 26.3945 33.7196 26.476 34.1973 26.6793L34.2227 26.691L43.4238 30.7932C44.0436 31.059 44.5602 31.5172 44.8964 32.0994C45.2326 32.6816 45.3704 33.3564 45.2891 34.0229Z" fill="#FFD233"/>
</svg>
