<svg width="100" height="27" viewBox="0 0 100 27" fill="none" xmlns="http://www.w3.org/2000/svg">
<rect width="21.1864" height="24.8739" fill="#81450A" fill-opacity="0.54"/>
<path d="M19.421 12.4369C19.421 6.71589 15.4662 2.07275 10.5933 2.07275C5.72043 2.07275 1.76562 6.71589 1.76562 12.4369C1.76562 17.4531 4.80235 21.6299 8.82777 22.5938V15.5461H7.06223V12.4369H8.82777V9.84586C8.82777 7.84558 10.2137 6.21841 11.9175 6.21841H14.1244V9.32766H12.3588C11.8733 9.32766 11.4761 9.79404 11.4761 10.3641V12.4369H14.1244V15.5461H11.4761V22.7492C15.9341 22.231 19.421 17.8159 19.421 12.4369Z" fill="#FFD233"/>
<rect width="21.1864" height="24.8739" transform="translate(37.2891 1.98999)" fill="#81450A" fill-opacity="0.54"/>
<path d="M48.7899 4.06274C49.783 4.06585 50.2871 4.07207 50.7223 4.08658L50.8935 4.09384C51.0913 4.10213 51.2863 4.11249 51.522 4.12493C52.4613 4.17675 53.1022 4.35087 53.6645 4.60686C54.2472 4.87011 54.738 5.22664 55.2288 5.80185C55.6777 6.31995 56.025 6.94666 56.2466 7.63837C56.4647 8.29857 56.613 9.05101 56.6571 10.1548C56.6677 10.4305 56.6765 10.6595 56.6836 10.8927L56.6889 11.0938C56.7021 11.6037 56.7074 12.1955 56.7092 13.3615L56.7101 14.1346V15.4923C56.7122 16.2483 56.7055 17.0043 56.6898 17.76L56.6845 17.9611C56.6774 18.1943 56.6686 18.4233 56.658 18.699C56.6139 19.8028 56.4638 20.5542 56.2466 21.2154C56.0256 21.9075 55.6782 22.5344 55.2288 23.0519C54.7874 23.5788 54.2536 23.9865 53.6645 24.2469C53.1022 24.5029 52.4613 24.677 51.522 24.7288C51.3126 24.7404 51.1031 24.7508 50.8935 24.7599L50.7223 24.7662C50.2871 24.7807 49.783 24.7879 48.7899 24.79L48.1313 24.791H46.9758C46.3316 24.7936 45.6874 24.7857 45.0434 24.7672L44.8722 24.761C44.6626 24.7517 44.4531 24.7409 44.2436 24.7288C43.3044 24.677 42.6635 24.5029 42.1003 24.2469C41.5112 23.9872 40.9776 23.5793 40.5369 23.0519C40.0876 22.534 39.7399 21.9073 39.5182 21.2154C39.3001 20.5552 39.1518 19.8028 39.1077 18.699C39.0978 18.4531 39.089 18.2071 39.0812 17.9611L39.0768 17.76C39.0605 17.0043 39.0532 16.2483 39.0547 15.4923V13.3615C39.0522 12.6055 39.0587 11.8495 39.0741 11.0938L39.0803 10.8927C39.0874 10.6595 39.0962 10.4305 39.1068 10.1548C39.1509 9.05101 39.2992 8.29961 39.5173 7.63837C39.739 6.94595 40.0873 6.31904 40.5378 5.80185C40.9783 5.2748 41.5116 4.86699 42.1003 4.60686C42.6635 4.35087 43.3035 4.17675 44.2436 4.12493C44.4784 4.11249 44.6744 4.10213 44.8722 4.09384L45.0434 4.08762C45.6871 4.0692 46.331 4.06126 46.9749 4.06378L48.7899 4.06274ZM47.8824 9.24482C46.7118 9.24482 45.5891 9.79078 44.7613 10.7626C43.9336 11.7344 43.4686 13.0525 43.4686 14.4269C43.4686 15.8013 43.9336 17.1193 44.7613 18.0912C45.5891 19.063 46.7118 19.609 47.8824 19.609C49.053 19.609 50.1757 19.063 51.0035 18.0912C51.8312 17.1193 52.2962 15.8013 52.2962 14.4269C52.2962 13.0525 51.8312 11.7344 51.0035 10.7626C50.1757 9.79078 49.053 9.24482 47.8824 9.24482ZM47.8824 11.3176C48.2302 11.3176 48.5746 11.3979 48.8959 11.5541C49.2172 11.7103 49.5092 11.9393 49.7552 12.228C50.0011 12.5166 50.1962 12.8593 50.3294 13.2366C50.4625 13.6138 50.5311 14.0181 50.5311 14.4264C50.5312 14.8347 50.4628 15.239 50.3297 15.6163C50.1967 15.9935 50.0017 16.3363 49.7558 16.6251C49.5099 16.9139 49.218 17.1429 48.8967 17.2993C48.5754 17.4556 48.2311 17.5361 47.8833 17.5361C47.1809 17.5361 46.5073 17.2086 46.0106 16.6255C45.514 16.0424 45.235 15.2515 45.235 14.4269C45.235 13.6023 45.514 12.8114 46.0106 12.2283C46.5073 11.6452 47.1809 11.3176 47.8833 11.3176M52.5178 7.69019C52.2252 7.69019 51.9445 7.82669 51.7375 8.06964C51.5306 8.3126 51.4143 8.64212 51.4143 8.98571C51.4143 9.32931 51.5306 9.65883 51.7375 9.90178C51.9445 10.1447 52.2252 10.2812 52.5178 10.2812C52.8105 10.2812 53.0911 10.1447 53.2981 9.90178C53.505 9.65883 53.6213 9.32931 53.6213 8.98571C53.6213 8.64212 53.505 8.3126 53.2981 8.06964C53.0911 7.82669 52.8105 7.69019 52.5178 7.69019Z" fill="#FFD233"/>
<path d="M87.2871 19.7571L92.785 14.427L87.2871 9.09683V19.7571ZM99.5328 5.84545C99.6706 6.68051 99.7659 7.79983 99.8295 9.2212C99.9036 10.6426 99.9354 11.8685 99.9354 12.9345L99.9989 14.427C99.9989 18.318 99.8295 21.1785 99.5328 23.0085C99.268 24.6075 98.6536 25.638 97.7002 26.0822C97.2023 26.3132 96.2913 26.4731 94.893 26.5797C93.5159 26.704 92.2553 26.7573 91.09 26.7573L89.4057 26.8639C84.9672 26.8639 82.2023 26.5797 81.1112 26.0822C80.1578 25.638 79.5434 24.6075 79.2786 23.0085C79.1409 22.1734 79.0456 21.0541 78.982 19.6327C78.9078 18.2114 78.8761 16.9854 78.8761 15.9194L78.8125 14.427C78.8125 10.536 78.982 7.67546 79.2786 5.84545C79.5434 4.24641 80.1578 3.21592 81.1112 2.77174C81.6091 2.54077 82.5201 2.38087 83.9184 2.27426C85.2956 2.14989 86.5561 2.09659 87.7214 2.09659L89.4057 1.98999C93.8443 1.98999 96.6091 2.27426 97.7002 2.77174C98.6536 3.21592 99.268 4.24641 99.5328 5.84545Z" fill="#81450A" fill-opacity="0.54"/>
</svg>
