<svg width="160" height="20" viewBox="0 0 160 20" fill="none" xmlns="http://www.w3.org/2000/svg">
<path d="M13.6126 19.525C13.3755 19.5247 13.1439 19.443 12.9474 19.2902L8.94519 16.2005C8.92548 16.1849 8.90209 16.1765 8.87813 16.1765C8.85417 16.1765 8.83078 16.1849 8.81107 16.2005L4.8089 19.2902C4.60793 19.4447 4.3709 19.5252 4.12927 19.5209C3.88765 19.5167 3.65286 19.4278 3.45611 19.2663C3.25935 19.1047 3.10992 18.878 3.02766 18.6162C2.94541 18.3545 2.93422 18.0702 2.99559 17.801L4.30997 12.4621C4.31619 12.4352 4.31543 12.4069 4.30781 12.3805C4.30018 12.3542 4.28601 12.331 4.26705 12.3138L0.479481 8.88431C0.28009 8.71322 0.132187 8.47455 0.0565088 8.20175C-0.0191692 7.92896 -0.0188268 7.63573 0.057488 7.36317C0.133803 7.09061 0.282263 6.8524 0.482052 6.68193C0.681842 6.51146 0.922941 6.41729 1.17154 6.41261L5.9999 6.20251C6.02364 6.20063 6.0464 6.19087 6.06543 6.17443C6.08447 6.15798 6.09897 6.13555 6.10719 6.10983L7.77029 0.900719C7.85412 0.636643 8.00638 0.408615 8.20645 0.247508C8.40652 0.0864022 8.64474 0 8.88886 0C9.13298 0 9.3712 0.0864022 9.57127 0.247508C9.77134 0.408615 9.9236 0.636643 10.0074 0.900719L11.6705 6.10983C11.6787 6.13555 11.6932 6.15798 11.7123 6.17443C11.7313 6.19087 11.7541 6.20063 11.7778 6.20251L16.6062 6.41261C16.8548 6.41729 17.0959 6.51146 17.2957 6.68193C17.4955 6.8524 17.6439 7.09061 17.7202 7.36317C17.7965 7.63573 17.7969 7.92896 17.7212 8.20175C17.6455 8.47455 17.4976 8.71322 17.2982 8.88431L13.5107 12.3138C13.4911 12.3304 13.4765 12.3536 13.4688 12.3801C13.4612 12.4067 13.4608 12.4353 13.4677 12.4621L14.7821 17.801C14.8283 18.0057 14.8328 18.22 14.7955 18.4272C14.7582 18.6343 14.6799 18.8288 14.5668 18.9955C14.4537 19.1622 14.3088 19.2967 14.1434 19.3885C13.9779 19.4803 13.7963 19.527 13.6126 19.525ZM8.87808 14.9525C8.87966 14.9453 8.88623 14.9402 8.89367 14.9405C9.12667 14.9516 9.35176 15.0417 9.54069 15.1995L13.5429 18.2891C13.5631 18.3069 13.5879 18.3166 13.6133 18.3168C13.6388 18.3171 13.6637 18.3078 13.6842 18.2904C13.7047 18.273 13.7198 18.2485 13.7272 18.2204C13.7346 18.1923 13.7339 18.1622 13.7253 18.1346L12.4109 12.7958C12.3462 12.5339 12.351 12.2557 12.4246 11.9969C12.4982 11.7382 12.6373 11.5107 12.824 11.3436L16.6115 7.91417C16.6322 7.89745 16.6477 7.87354 16.6557 7.84596C16.6637 7.81837 16.6638 7.78856 16.6559 7.7609C16.6481 7.73325 16.6328 7.7092 16.6123 7.6923C16.5918 7.6754 16.567 7.66653 16.5418 7.667L11.7134 7.4569C11.477 7.44629 11.2487 7.35481 11.0576 7.19413C10.8665 7.03345 10.7213 6.81086 10.6405 6.55473L8.97738 1.34563C8.96988 1.31797 8.95491 1.29379 8.93464 1.27663C8.91437 1.25946 8.88987 1.2502 8.86472 1.2502C8.83956 1.2502 8.81506 1.25946 8.7948 1.27663C8.77453 1.29379 8.75955 1.31797 8.75206 1.34563L7.10505 6.54855C7.02423 6.80468 6.87902 7.02727 6.68792 7.18795C6.49682 7.34863 6.2685 7.44011 6.03208 7.45072L1.20373 7.66082C1.17849 7.66035 1.15378 7.66922 1.13323 7.68612C1.11268 7.70302 1.09739 7.72707 1.08958 7.75472C1.08178 7.78238 1.08188 7.81219 1.08987 7.83978C1.09787 7.86736 1.11333 7.89127 1.13399 7.90799L4.92693 11.3436C5.11306 11.5112 5.25172 11.7388 5.32527 11.9973C5.39883 12.2559 5.40396 12.5338 5.34002 12.7958L4.031 18.1346C4.02319 18.1614 4.02315 18.1903 4.0309 18.2171C4.03864 18.2438 4.05374 18.267 4.07392 18.2829C4.09335 18.3021 4.11809 18.3126 4.14366 18.3126C4.16924 18.3126 4.19397 18.3021 4.21341 18.2829L8.21557 15.1933C8.40771 15.0465 8.63264 14.9672 8.86302 14.9647C8.87027 14.9647 8.87655 14.9596 8.87808 14.9525Z" fill="#E5AF2F"/>
<path d="M49.1663 19.525C48.9292 19.5247 48.6976 19.443 48.5011 19.2902L44.4989 16.2005C44.4792 16.1849 44.4558 16.1765 44.4318 16.1765C44.4079 16.1765 44.3845 16.1849 44.3648 16.2005L40.3626 19.2902C40.1616 19.4447 39.9246 19.5252 39.683 19.5209C39.4414 19.5167 39.2066 19.4278 39.0098 19.2663C38.8131 19.1047 38.6636 18.878 38.5814 18.6162C38.4991 18.3545 38.4879 18.0702 38.5493 17.801L39.8637 12.4621C39.8699 12.4352 39.8691 12.4069 39.8615 12.3805C39.8539 12.3542 39.8397 12.331 39.8208 12.3138L36.0332 8.88431C35.8338 8.71322 35.6859 8.47455 35.6102 8.20175C35.5345 7.92896 35.5349 7.63573 35.6112 7.36317C35.6875 7.09061 35.836 6.8524 36.0358 6.68193C36.2356 6.51146 36.4767 6.41729 36.7253 6.41261L41.5536 6.20251C41.5773 6.20063 41.6001 6.19087 41.6191 6.17443C41.6382 6.15798 41.6527 6.13555 41.6609 6.10983L43.324 0.900719C43.4078 0.636643 43.5601 0.408615 43.7602 0.247508C43.9602 0.0864022 44.1985 0 44.4426 0C44.6867 0 44.9249 0.0864022 45.125 0.247508C45.3251 0.408615 45.4773 0.636643 45.5611 0.900719L47.2242 6.10983C47.2325 6.13555 47.247 6.15798 47.266 6.17443C47.285 6.19087 47.3078 6.20063 47.3315 6.20251L52.1599 6.41261C52.4085 6.41729 52.6496 6.51146 52.8494 6.68193C53.0492 6.8524 53.1976 7.09061 53.2739 7.36317C53.3503 7.63573 53.3506 7.92896 53.2749 8.20175C53.1992 8.47455 53.0513 8.71322 52.8519 8.88431L49.0644 12.3138C49.0448 12.3304 49.0302 12.3536 49.0226 12.3801C49.0149 12.4067 49.0145 12.4353 49.0215 12.4621L50.3358 17.801C50.382 18.0057 50.3866 18.22 50.3492 18.4272C50.3119 18.6343 50.2336 18.8288 50.1205 18.9955C50.0075 19.1622 49.8625 19.2967 49.6971 19.3885C49.5316 19.4803 49.35 19.527 49.1663 19.525ZM44.4318 14.9525C44.4334 14.9453 44.4399 14.9402 44.4474 14.9405C44.6804 14.9516 44.9055 15.0417 45.0944 15.1995L49.0966 18.2891C49.1168 18.3069 49.1416 18.3166 49.167 18.3168C49.1925 18.3171 49.2174 18.3078 49.2379 18.2904C49.2584 18.273 49.2735 18.2485 49.2809 18.2204C49.2883 18.1923 49.2876 18.1622 49.279 18.1346L47.9646 12.7958C47.8999 12.5339 47.9047 12.2557 47.9783 11.9969C48.0519 11.7382 48.191 11.5107 48.3777 11.3436L52.1652 7.91417C52.1859 7.89745 52.2014 7.87354 52.2094 7.84596C52.2174 7.81837 52.2175 7.78856 52.2097 7.7609C52.2019 7.73325 52.1866 7.7092 52.166 7.6923C52.1455 7.6754 52.1208 7.66653 52.0955 7.667L47.2672 7.4569C47.0307 7.44629 46.8024 7.35481 46.6113 7.19413C46.4202 7.03345 46.275 6.81086 46.1942 6.55473L44.5311 1.34563C44.5236 1.31797 44.5086 1.29379 44.4883 1.27663C44.4681 1.25946 44.4436 1.2502 44.4184 1.2502C44.3933 1.2502 44.3688 1.25946 44.3485 1.27663C44.3282 1.29379 44.3133 1.31797 44.3058 1.34563L42.6588 6.54855C42.5779 6.80468 42.4327 7.02727 42.2416 7.18795C42.0505 7.34863 41.8222 7.44011 41.5858 7.45072L36.7574 7.66082C36.7322 7.66035 36.7075 7.66922 36.6869 7.68612C36.6664 7.70302 36.6511 7.72707 36.6433 7.75472C36.6355 7.78238 36.6356 7.81219 36.6436 7.83978C36.6516 7.86736 36.667 7.89127 36.6877 7.90799L40.4806 11.3436C40.6668 11.5112 40.8054 11.7388 40.879 11.9973C40.9525 12.2559 40.9577 12.5338 40.8937 12.7958L39.5847 18.1346C39.5769 18.1614 39.5769 18.1903 39.5846 18.2171C39.5924 18.2438 39.6075 18.267 39.6276 18.2829C39.6471 18.3021 39.6718 18.3126 39.6974 18.3126C39.7229 18.3126 39.7477 18.3021 39.7671 18.2829L43.7693 15.1933C43.9614 15.0465 44.1863 14.9672 44.4167 14.9647C44.424 14.9647 44.4303 14.9596 44.4318 14.9525Z" fill="#E5AF2F"/>
<path d="M84.7242 19.525C84.4871 19.5247 84.2554 19.443 84.0589 19.2902L80.0568 16.2005C80.037 16.1849 80.0137 16.1765 79.9897 16.1765C79.9657 16.1765 79.9424 16.1849 79.9226 16.2005L75.9205 19.2902C75.7195 19.4447 75.4825 19.5252 75.2408 19.5209C74.9992 19.5167 74.7644 19.4278 74.5677 19.2663C74.3709 19.1047 74.2215 18.878 74.1392 18.6162C74.057 18.3545 74.0458 18.0702 74.1072 17.801L75.4215 12.4621C75.4278 12.4352 75.427 12.4069 75.4194 12.3805C75.4117 12.3542 75.3976 12.331 75.3786 12.3138L71.5911 8.88431C71.3917 8.71322 71.2438 8.47455 71.1681 8.20175C71.0924 7.92896 71.0927 7.63573 71.1691 7.36317C71.2454 7.09061 71.3938 6.8524 71.5936 6.68193C71.7934 6.51146 72.0345 6.41729 72.2831 6.41261L77.1115 6.20251C77.1352 6.20063 77.158 6.19087 77.177 6.17443C77.196 6.15798 77.2105 6.13555 77.2188 6.10983L78.8819 0.900719C78.9657 0.636643 79.118 0.408615 79.318 0.247508C79.5181 0.0864022 79.7563 0 80.0004 0C80.2445 0 80.4828 0.0864022 80.6828 0.247508C80.8829 0.408615 81.0352 0.636643 81.119 0.900719L82.7821 6.10983C82.7903 6.13555 82.8048 6.15798 82.8239 6.17443C82.8429 6.19087 82.8657 6.20063 82.8894 6.20251L87.7177 6.41261C87.9664 6.41729 88.2074 6.51146 88.4072 6.68193C88.607 6.8524 88.7555 7.09061 88.8318 7.36317C88.9081 7.63573 88.9085 7.92896 88.8328 8.20175C88.7571 8.47455 88.6092 8.71322 88.4098 8.88431L84.6222 12.3138C84.6027 12.3304 84.5881 12.3536 84.5804 12.3801C84.5727 12.4067 84.5724 12.4353 84.5793 12.4621L85.8937 17.801C85.9398 18.0057 85.9444 18.22 85.9071 18.4272C85.8697 18.6343 85.7915 18.8288 85.6784 18.9955C85.5653 19.1622 85.4204 19.2967 85.2549 19.3885C85.0895 19.4803 84.9078 19.527 84.7242 19.525ZM79.9897 14.9525C79.9912 14.9453 79.9978 14.9402 80.0052 14.9405C80.2382 14.9516 80.4633 15.0417 80.6523 15.1995L84.6544 18.2891C84.6747 18.3069 84.6994 18.3166 84.7249 18.3168C84.7504 18.3171 84.7752 18.3078 84.7958 18.2904C84.8163 18.273 84.8314 18.2485 84.8388 18.2204C84.8462 18.1923 84.8455 18.1622 84.8368 18.1346L83.5224 12.7958C83.4578 12.5339 83.4625 12.2557 83.5361 11.9969C83.6098 11.7382 83.7488 11.5107 83.9355 11.3436L87.7231 7.91417C87.7438 7.89745 87.7592 7.87354 87.7672 7.84596C87.7752 7.81837 87.7753 7.78856 87.7675 7.7609C87.7597 7.73325 87.7444 7.7092 87.7239 7.6923C87.7033 7.6754 87.6786 7.66653 87.6534 7.667L82.825 7.4569C82.5886 7.44629 82.3603 7.35481 82.1692 7.19413C81.9781 7.03345 81.8329 6.81086 81.7521 6.55473L80.089 1.34563C80.0815 1.31797 80.0665 1.29379 80.0462 1.27663C80.0259 1.25946 80.0014 1.2502 79.9763 1.2502C79.9511 1.2502 79.9266 1.25946 79.9064 1.27663C79.8861 1.29379 79.8711 1.31797 79.8636 1.34563L78.2166 6.54855C78.1358 6.80468 77.9906 7.02727 77.7995 7.18795C77.6084 7.34863 77.3801 7.44011 77.1437 7.45072L72.3153 7.66082C72.2901 7.66035 72.2653 7.66922 72.2448 7.68612C72.2243 7.70302 72.209 7.72707 72.2012 7.75472C72.1934 7.78238 72.1935 7.81219 72.2014 7.83978C72.2094 7.86736 72.2249 7.89127 72.2456 7.90799L76.0385 11.3436C76.2246 11.5112 76.3633 11.7388 76.4368 11.9973C76.5104 12.2559 76.5155 12.5338 76.4516 12.7958L75.1426 18.1346C75.1348 18.1614 75.1347 18.1903 75.1425 18.2171C75.1502 18.2438 75.1653 18.267 75.1855 18.2829C75.2049 18.3021 75.2297 18.3126 75.2552 18.3126C75.2808 18.3126 75.3055 18.3021 75.325 18.2829L79.3271 15.1933C79.5193 15.0465 79.7442 14.9672 79.9746 14.9647C79.9818 14.9647 79.9881 14.9596 79.9897 14.9525Z" fill="#E5AF2F"/>
<path d="M120.278 19.525C120.041 19.5247 119.809 19.443 119.613 19.2902L115.61 16.2005C115.591 16.1849 115.567 16.1765 115.543 16.1765C115.519 16.1765 115.496 16.1849 115.476 16.2005L111.474 19.2902C111.273 19.4447 111.036 19.5252 110.795 19.5209C110.553 19.5167 110.318 19.4278 110.121 19.2663C109.925 19.1047 109.775 18.878 109.693 18.6162C109.611 18.3545 109.6 18.0702 109.661 17.801L110.975 12.4621C110.981 12.4352 110.981 12.4069 110.973 12.3805C110.965 12.3542 110.951 12.331 110.932 12.3138L107.145 8.88431C106.945 8.71322 106.797 8.47455 106.722 8.20175C106.646 7.92896 106.646 7.63573 106.723 7.36317C106.799 7.09061 106.948 6.8524 107.147 6.68193C107.347 6.51146 107.588 6.41729 107.837 6.41261L112.665 6.20251C112.689 6.20063 112.712 6.19087 112.731 6.17443C112.75 6.15798 112.764 6.13555 112.772 6.10983L114.436 0.900719C114.519 0.636643 114.672 0.408615 114.872 0.247508C115.072 0.0864022 115.31 0 115.554 0C115.798 0 116.036 0.0864022 116.237 0.247508C116.437 0.408615 116.589 0.636643 116.673 0.900719L118.336 6.10983C118.344 6.13555 118.359 6.15798 118.378 6.17443C118.397 6.19087 118.419 6.20063 118.443 6.20251L123.271 6.41261C123.52 6.41729 123.761 6.51146 123.961 6.68193C124.161 6.8524 124.309 7.09061 124.386 7.36317C124.462 7.63573 124.462 7.92896 124.386 8.20175C124.311 8.47455 124.163 8.71322 123.964 8.88431L120.176 12.3138C120.156 12.3304 120.142 12.3536 120.134 12.3801C120.126 12.4067 120.126 12.4353 120.133 12.4621L121.447 17.801C121.494 18.0057 121.498 18.22 121.461 18.4272C121.423 18.6343 121.345 18.8288 121.232 18.9955C121.119 19.1622 120.974 19.2967 120.809 19.3885C120.643 19.4803 120.462 19.527 120.278 19.525ZM115.543 14.9525C115.545 14.9453 115.552 14.9402 115.559 14.9405C115.792 14.9516 116.017 15.0417 116.206 15.1995L120.208 18.2891C120.228 18.3069 120.253 18.3166 120.279 18.3168C120.304 18.3171 120.329 18.3078 120.349 18.2904C120.37 18.273 120.385 18.2485 120.392 18.2204C120.4 18.1923 120.399 18.1622 120.391 18.1346L119.076 12.7958C119.011 12.5339 119.016 12.2557 119.09 11.9969C119.163 11.7382 119.303 11.5107 119.489 11.3436L123.277 7.91417C123.297 7.89745 123.313 7.87354 123.321 7.84596C123.329 7.81837 123.329 7.78856 123.321 7.7609C123.313 7.73325 123.298 7.7092 123.278 7.6923C123.257 7.6754 123.232 7.66653 123.207 7.667L118.379 7.4569C118.142 7.44629 117.914 7.35481 117.723 7.19413C117.532 7.03345 117.387 6.81086 117.306 6.55473L115.643 1.34563C115.635 1.31797 115.62 1.29379 115.6 1.27663C115.58 1.25946 115.555 1.2502 115.53 1.2502C115.505 1.2502 115.48 1.25946 115.46 1.27663C115.44 1.29379 115.425 1.31797 115.417 1.34563L113.77 6.54855C113.69 6.80468 113.544 7.02727 113.353 7.18795C113.162 7.34863 112.934 7.44011 112.697 7.45072L107.869 7.66082C107.844 7.66035 107.819 7.66922 107.799 7.68612C107.778 7.70302 107.763 7.72707 107.755 7.75472C107.747 7.78238 107.747 7.81219 107.755 7.83978C107.763 7.86736 107.779 7.89127 107.799 7.90799L111.592 11.3436C111.778 11.5112 111.917 11.7388 111.991 11.9973C112.064 12.2559 112.069 12.5338 112.005 12.7958L110.696 18.1346C110.688 18.1614 110.688 18.1903 110.696 18.2171C110.704 18.2438 110.719 18.267 110.739 18.2829C110.759 18.3021 110.783 18.3126 110.809 18.3126C110.835 18.3126 110.859 18.3021 110.879 18.2829L114.881 15.1933C115.073 15.0465 115.298 14.9672 115.528 14.9647C115.536 14.9647 115.542 14.9596 115.543 14.9525Z" fill="#E5AF2F"/>
<path d="M155.836 19.525C155.599 19.5247 155.367 19.443 155.171 19.2902L151.168 16.2005C151.149 16.1849 151.125 16.1765 151.101 16.1765C151.077 16.1765 151.054 16.1849 151.034 16.2005L147.032 19.2902C146.831 19.4447 146.594 19.5252 146.352 19.5209C146.111 19.5167 145.876 19.4278 145.679 19.2663C145.482 19.1047 145.333 18.878 145.251 18.6162C145.169 18.3545 145.157 18.0702 145.219 17.801L146.533 12.4621C146.539 12.4352 146.539 12.4069 146.531 12.3805C146.523 12.3542 146.509 12.331 146.49 12.3138L142.703 8.88431C142.503 8.71322 142.355 8.47455 142.28 8.20175C142.204 7.92896 142.204 7.63573 142.281 7.36317C142.357 7.09061 142.505 6.8524 142.705 6.68193C142.905 6.51146 143.146 6.41729 143.395 6.41261L148.223 6.20251C148.247 6.20063 148.27 6.19087 148.289 6.17443C148.308 6.15798 148.322 6.13555 148.33 6.10983L149.993 0.900719C150.077 0.636643 150.23 0.408615 150.43 0.247508C150.63 0.0864022 150.868 0 151.112 0C151.356 0 151.594 0.0864022 151.794 0.247508C151.994 0.408615 152.147 0.636643 152.231 0.900719L153.894 6.10983C153.902 6.13555 153.916 6.15798 153.935 6.17443C153.954 6.19087 153.977 6.20063 154.001 6.20251L158.829 6.41261C159.078 6.41729 159.319 6.51146 159.519 6.68193C159.719 6.8524 159.867 7.09061 159.943 7.36317C160.02 7.63573 160.02 7.92896 159.944 8.20175C159.869 8.47455 159.721 8.71322 159.521 8.88431L155.734 12.3138C155.714 12.3304 155.7 12.3536 155.692 12.3801C155.684 12.4067 155.684 12.4353 155.691 12.4621L157.005 17.801C157.051 18.0057 157.056 18.22 157.019 18.4272C156.981 18.6343 156.903 18.8288 156.79 18.9955C156.677 19.1622 156.532 19.2967 156.367 19.3885C156.201 19.4803 156.019 19.527 155.836 19.525ZM151.101 14.9525C151.103 14.9453 151.109 14.9402 151.117 14.9405C151.35 14.9516 151.575 15.0417 151.764 15.1995L155.766 18.2891C155.786 18.3069 155.811 18.3166 155.836 18.3168C155.862 18.3171 155.887 18.3078 155.907 18.2904C155.928 18.273 155.943 18.2485 155.95 18.2204C155.958 18.1923 155.957 18.1622 155.948 18.1346L154.634 12.7958C154.569 12.5339 154.574 12.2557 154.648 11.9969C154.721 11.7382 154.86 11.5107 155.047 11.3436L158.835 7.91417C158.855 7.89745 158.871 7.87354 158.879 7.84596C158.887 7.81837 158.887 7.78856 158.879 7.7609C158.871 7.73325 158.856 7.7092 158.835 7.6923C158.815 7.6754 158.79 7.66653 158.765 7.667L153.937 7.4569C153.7 7.44629 153.472 7.35481 153.281 7.19413C153.09 7.03345 152.944 6.81086 152.864 6.55473L151.201 1.34563C151.193 1.31797 151.178 1.29379 151.158 1.27663C151.138 1.25946 151.113 1.2502 151.088 1.2502C151.063 1.2502 151.038 1.25946 151.018 1.27663C150.998 1.29379 150.983 1.31797 150.975 1.34563L149.328 6.54855C149.247 6.80468 149.102 7.02727 148.911 7.18795C148.72 7.34863 148.492 7.44011 148.255 7.45072L143.427 7.66082C143.402 7.66035 143.377 7.66922 143.356 7.68612C143.336 7.70302 143.321 7.72707 143.313 7.75472C143.305 7.78238 143.305 7.81219 143.313 7.83978C143.321 7.86736 143.336 7.89127 143.357 7.90799L147.15 11.3436C147.336 11.5112 147.475 11.7388 147.548 11.9973C147.622 12.2559 147.627 12.5338 147.563 12.7958L146.254 18.1346C146.246 18.1614 146.246 18.1903 146.254 18.2171C146.262 18.2438 146.277 18.267 146.297 18.2829C146.316 18.3021 146.341 18.3126 146.367 18.3126C146.392 18.3126 146.417 18.3021 146.437 18.2829L150.439 15.1933C150.631 15.0465 150.856 14.9672 151.086 14.9647C151.093 14.9647 151.1 14.9596 151.101 14.9525Z" fill="#E5AF2F"/>
</svg>
