<svg width="18" height="21" viewBox="0 0 18 21" fill="none" xmlns="http://www.w3.org/2000/svg">
<path d="M9.73568 0C10.7288 0.00310924 11.2329 0.00932773 11.6681 0.0238375L11.8393 0.0310924C12.0371 0.0393837 12.2321 0.0497478 12.4678 0.0621848C13.4071 0.114006 14.048 0.288123 14.6103 0.544118C15.193 0.807367 15.6838 1.16389 16.1746 1.7391C16.6235 2.2572 16.9708 2.88391 17.1924 3.57563C17.4105 4.23583 17.5588 4.98826 17.6029 6.09204C17.6135 6.36773 17.6223 6.59678 17.6294 6.82997L17.6347 7.03104C17.6479 7.54095 17.6532 8.13274 17.655 9.29871L17.6559 10.0719V11.4296C17.658 12.1855 17.6513 12.9415 17.6356 13.6973L17.6303 13.8983C17.6232 14.1315 17.6144 14.3606 17.6038 14.6362C17.5597 15.74 17.4096 16.4914 17.1924 17.1527C16.9714 17.8448 16.624 18.4716 16.1746 18.9892C15.7332 19.516 15.1994 19.9238 14.6103 20.1842C14.048 20.4402 13.4071 20.6143 12.4678 20.6661C12.2584 20.6777 12.0489 20.688 11.8393 20.6972L11.6681 20.7034C11.2329 20.7179 10.7288 20.7252 9.73568 20.7273L9.07713 20.7283H7.92159C7.2774 20.7309 6.63321 20.7229 5.98921 20.7044L5.81795 20.6982C5.60839 20.6889 5.39888 20.6782 5.18942 20.6661C4.25016 20.6143 3.60927 20.4402 3.04606 20.1842C2.45696 19.9244 1.92337 19.5166 1.48268 18.9892C1.03339 18.4713 0.685736 17.8445 0.463963 17.1527C0.245919 16.4925 0.0976138 15.74 0.0534754 14.6362C0.0436403 14.3903 0.0348126 14.1443 0.0269924 13.8983L0.0225787 13.6973C0.00631104 12.9415 -0.00104615 12.1856 0.000509358 11.4296V9.29871C-0.00195442 8.54275 0.00451991 7.78679 0.0199303 7.03104L0.0261097 6.82997C0.0331718 6.59678 0.0419995 6.36773 0.0525927 6.09204C0.0967311 4.98826 0.245036 4.23686 0.46308 3.57563C0.684755 2.88321 1.0331 2.2563 1.48356 1.7391C1.92414 1.21206 2.45738 0.804244 3.04606 0.544118C3.60927 0.288123 4.24927 0.114006 5.18942 0.0621848C5.42424 0.0497478 5.62021 0.0393837 5.81795 0.0310924L5.98921 0.0248739C6.63292 0.00645967 7.27681 -0.00148694 7.92071 0.00103634L9.73568 0ZM8.82819 5.18207C7.65757 5.18207 6.53489 5.72804 5.70714 6.69987C4.87938 7.67169 4.41435 8.98977 4.41435 10.3641C4.41435 11.7385 4.87938 13.0566 5.70714 14.0284C6.53489 15.0002 7.65757 15.5462 8.82819 15.5462C9.99882 15.5462 11.1215 15.0002 11.9493 14.0284C12.777 13.0566 13.242 11.7385 13.242 10.3641C13.242 8.98977 12.777 7.67169 11.9493 6.69987C11.1215 5.72804 9.99882 5.18207 8.82819 5.18207ZM8.82819 7.2549C9.17597 7.25483 9.52036 7.33519 9.84169 7.49138C10.163 7.64757 10.455 7.87654 10.701 8.16521C10.9469 8.45388 11.142 8.79661 11.2752 9.17381C11.4083 9.55101 11.4769 9.95531 11.4769 10.3636C11.477 10.7719 11.4086 11.1763 11.2755 11.5535C11.1425 11.9308 10.9475 12.2736 10.7016 12.5623C10.4557 12.8511 10.1638 13.0802 9.84251 13.2365C9.52122 13.3928 9.17686 13.4733 8.82908 13.4734C8.1267 13.4734 7.4531 13.1458 6.95644 12.5627C6.45979 11.9796 6.18077 11.1888 6.18077 10.3641C6.18077 9.53952 6.45979 8.74867 6.95644 8.16558C7.4531 7.58248 8.1267 7.2549 8.82908 7.2549M13.4636 3.62745C13.171 3.62745 12.8903 3.76394 12.6833 4.0069C12.4764 4.24986 12.3602 4.57938 12.3602 4.92297C12.3602 5.26656 12.4764 5.59608 12.6833 5.83904C12.8903 6.08199 13.171 6.21849 13.4636 6.21849C13.7563 6.21849 14.0369 6.08199 14.2439 5.83904C14.4508 5.59608 14.5671 5.26656 14.5671 4.92297C14.5671 4.57938 14.4508 4.24986 14.2439 4.0069C14.0369 3.76394 13.7563 3.62745 13.4636 3.62745Z" fill="#FFD233"/>
</svg>
