<svg width="22" height="25" viewBox="0 0 22 25" fill="none" xmlns="http://www.w3.org/2000/svg">
<path d="M8.47458 17.7671L13.9725 12.437L8.47458 7.10684V17.7671ZM20.7203 3.85546C20.8581 4.69052 20.9534 5.80984 21.017 7.23121C21.0911 8.65258 21.1229 9.87851 21.1229 10.9445L21.1864 12.437C21.1864 16.328 21.017 19.1885 20.7203 21.0185C20.4555 22.6175 19.8411 23.648 18.8877 24.0922C18.3898 24.3232 17.4788 24.4831 16.0805 24.5897C14.7034 24.714 13.4428 24.7673 12.2775 24.7673L10.5932 24.8739C6.15466 24.8739 3.38983 24.5897 2.29873 24.0922C1.34534 23.648 0.730932 22.6175 0.466102 21.0185C0.32839 20.1834 0.233051 19.0641 0.169492 17.6427C0.0953391 16.2214 0.0635593 14.9954 0.0635593 13.9294L0 12.437C0 8.54598 0.169492 5.68547 0.466102 3.85546C0.730932 2.25642 1.34534 1.22593 2.29873 0.781753C2.79661 0.55078 3.70763 0.390876 5.10593 0.284273C6.48305 0.159904 7.74364 0.106603 8.9089 0.106603L10.5932 0C15.0318 0 17.7966 0.284274 18.8877 0.781753C19.8411 1.22593 20.4555 2.25642 20.7203 3.85546Z" fill="#81450A" fill-opacity="0.54"/>
</svg>
